<mxfile host="app.diagrams.net" modified="2023-06-23T11:37:17.919Z" agent="Mozilla/5.0 (Windows NT 10.0; Win64; x64; rv:109.0) Gecko/20100101 Firefox/114.0" etag="dfJsTmxDY7mmytuCO52H" version="21.5.0" type="device">
  <diagram id="R2lEEEUBdFMjLlhIrx00" name="Page-1">
    <mxGraphModel dx="1434" dy="774" grid="1" gridSize="10" guides="1" tooltips="1" connect="1" arrows="1" fold="1" page="1" pageScale="1" pageWidth="850" pageHeight="1100" math="0" shadow="0" extFonts="Permanent Marker^https://fonts.googleapis.com/css?family=Permanent+Marker">
      <root>
        <mxCell id="0" />
        <mxCell id="1" parent="0" />
        <mxCell id="trcw09YQFbVrs_72Otnj-25" value="links" style="shape=table;startSize=30;container=1;collapsible=0;childLayout=tableLayout;fixedRows=1;rowLines=0;fontStyle=0;strokeColor=#028090;fontSize=16;rounded=1;labelBackgroundColor=none;fillColor=#F45B69;fontColor=#E4FDE1;sketch=1;curveFitting=1;jiggle=2;" vertex="1" parent="1">
          <mxGeometry x="100" y="80" width="180" height="150" as="geometry" />
        </mxCell>
        <mxCell id="trcw09YQFbVrs_72Otnj-26" value="" style="shape=tableRow;horizontal=0;startSize=0;swimlaneHead=0;swimlaneBody=0;top=0;left=0;bottom=0;right=0;collapsible=0;dropTarget=0;fillColor=none;points=[[0,0.5],[1,0.5]];portConstraint=eastwest;strokeColor=#028090;fontSize=16;perimeterSpacing=4;rounded=1;labelBackgroundColor=none;fontColor=#E4FDE1;sketch=1;curveFitting=1;jiggle=2;" vertex="1" parent="trcw09YQFbVrs_72Otnj-25">
          <mxGeometry y="30" width="180" height="30" as="geometry" />
        </mxCell>
        <mxCell id="trcw09YQFbVrs_72Otnj-27" value="&lt;b&gt;PK&lt;/b&gt;" style="shape=partialRectangle;html=1;whiteSpace=wrap;connectable=0;fillColor=none;top=0;left=0;bottom=0;right=0;overflow=hidden;pointerEvents=1;strokeColor=#028090;fontSize=16;rounded=1;labelBackgroundColor=none;fontColor=#E4FDE1;sketch=1;curveFitting=1;jiggle=2;" vertex="1" parent="trcw09YQFbVrs_72Otnj-26">
          <mxGeometry width="40" height="30" as="geometry">
            <mxRectangle width="40" height="30" as="alternateBounds" />
          </mxGeometry>
        </mxCell>
        <mxCell id="trcw09YQFbVrs_72Otnj-28" value="&lt;b&gt;id&lt;/b&gt;" style="shape=partialRectangle;html=1;whiteSpace=wrap;connectable=0;fillColor=none;top=0;left=0;bottom=0;right=0;align=left;spacingLeft=6;overflow=hidden;strokeColor=#028090;fontSize=16;perimeterSpacing=4;rounded=1;labelBackgroundColor=none;fontColor=#E4FDE1;sketch=1;curveFitting=1;jiggle=2;" vertex="1" parent="trcw09YQFbVrs_72Otnj-26">
          <mxGeometry x="40" width="140" height="30" as="geometry">
            <mxRectangle width="140" height="30" as="alternateBounds" />
          </mxGeometry>
        </mxCell>
        <mxCell id="trcw09YQFbVrs_72Otnj-29" value="" style="shape=tableRow;horizontal=0;startSize=0;swimlaneHead=0;swimlaneBody=0;top=0;left=0;bottom=0;right=0;collapsible=0;dropTarget=0;fillColor=none;points=[[0,0.5],[1,0.5]];portConstraint=eastwest;strokeColor=#028090;fontSize=16;rounded=1;labelBackgroundColor=none;fontColor=#E4FDE1;sketch=1;curveFitting=1;jiggle=2;" vertex="1" parent="trcw09YQFbVrs_72Otnj-25">
          <mxGeometry y="60" width="180" height="30" as="geometry" />
        </mxCell>
        <mxCell id="trcw09YQFbVrs_72Otnj-30" value="" style="shape=partialRectangle;html=1;whiteSpace=wrap;connectable=0;fillColor=none;top=0;left=0;bottom=0;right=0;overflow=hidden;strokeColor=#028090;fontSize=16;rounded=1;labelBackgroundColor=none;fontColor=#E4FDE1;sketch=1;curveFitting=1;jiggle=2;" vertex="1" parent="trcw09YQFbVrs_72Otnj-29">
          <mxGeometry width="40" height="30" as="geometry">
            <mxRectangle width="40" height="30" as="alternateBounds" />
          </mxGeometry>
        </mxCell>
        <mxCell id="trcw09YQFbVrs_72Otnj-31" value="original" style="shape=partialRectangle;html=1;whiteSpace=wrap;connectable=0;fillColor=none;top=0;left=0;bottom=0;right=0;align=left;spacingLeft=6;overflow=hidden;strokeColor=#028090;fontSize=16;rounded=1;labelBackgroundColor=none;fontColor=#E4FDE1;sketch=1;curveFitting=1;jiggle=2;" vertex="1" parent="trcw09YQFbVrs_72Otnj-29">
          <mxGeometry x="40" width="140" height="30" as="geometry">
            <mxRectangle width="140" height="30" as="alternateBounds" />
          </mxGeometry>
        </mxCell>
        <mxCell id="trcw09YQFbVrs_72Otnj-32" value="" style="shape=tableRow;horizontal=0;startSize=0;swimlaneHead=0;swimlaneBody=0;top=0;left=0;bottom=0;right=0;collapsible=0;dropTarget=0;fillColor=none;points=[[0,0.5],[1,0.5]];portConstraint=eastwest;strokeColor=#028090;fontSize=16;rounded=1;labelBackgroundColor=none;fontColor=#E4FDE1;sketch=1;curveFitting=1;jiggle=2;" vertex="1" parent="trcw09YQFbVrs_72Otnj-25">
          <mxGeometry y="90" width="180" height="30" as="geometry" />
        </mxCell>
        <mxCell id="trcw09YQFbVrs_72Otnj-33" value="" style="shape=partialRectangle;html=1;whiteSpace=wrap;connectable=0;fillColor=none;top=0;left=0;bottom=0;right=0;overflow=hidden;strokeColor=#028090;fontSize=16;rounded=1;labelBackgroundColor=none;fontColor=#E4FDE1;sketch=1;curveFitting=1;jiggle=2;" vertex="1" parent="trcw09YQFbVrs_72Otnj-32">
          <mxGeometry width="40" height="30" as="geometry">
            <mxRectangle width="40" height="30" as="alternateBounds" />
          </mxGeometry>
        </mxCell>
        <mxCell id="trcw09YQFbVrs_72Otnj-34" value="generated" style="shape=partialRectangle;html=1;whiteSpace=wrap;connectable=0;fillColor=none;top=0;left=0;bottom=0;right=0;align=left;spacingLeft=6;overflow=hidden;strokeColor=#028090;fontSize=16;rounded=1;labelBackgroundColor=none;fontColor=#E4FDE1;sketch=1;curveFitting=1;jiggle=2;" vertex="1" parent="trcw09YQFbVrs_72Otnj-32">
          <mxGeometry x="40" width="140" height="30" as="geometry">
            <mxRectangle width="140" height="30" as="alternateBounds" />
          </mxGeometry>
        </mxCell>
        <mxCell id="trcw09YQFbVrs_72Otnj-66" value="" style="shape=tableRow;horizontal=0;startSize=0;swimlaneHead=0;swimlaneBody=0;top=0;left=0;bottom=0;right=0;collapsible=0;dropTarget=0;fillColor=none;points=[[0,0.5],[1,0.5]];portConstraint=eastwest;strokeColor=#028090;fontSize=16;rounded=1;labelBackgroundColor=none;fontColor=#E4FDE1;sketch=1;curveFitting=1;jiggle=2;" vertex="1" parent="trcw09YQFbVrs_72Otnj-25">
          <mxGeometry y="120" width="180" height="30" as="geometry" />
        </mxCell>
        <mxCell id="trcw09YQFbVrs_72Otnj-67" value="" style="shape=partialRectangle;html=1;whiteSpace=wrap;connectable=0;fillColor=none;top=0;left=0;bottom=0;right=0;overflow=hidden;strokeColor=#028090;fontSize=16;rounded=1;labelBackgroundColor=none;fontColor=#E4FDE1;sketch=1;curveFitting=1;jiggle=2;" vertex="1" parent="trcw09YQFbVrs_72Otnj-66">
          <mxGeometry width="40" height="30" as="geometry">
            <mxRectangle width="40" height="30" as="alternateBounds" />
          </mxGeometry>
        </mxCell>
        <mxCell id="trcw09YQFbVrs_72Otnj-68" value="date_delete" style="shape=partialRectangle;html=1;whiteSpace=wrap;connectable=0;fillColor=none;top=0;left=0;bottom=0;right=0;align=left;spacingLeft=6;overflow=hidden;strokeColor=#028090;fontSize=16;rounded=1;labelBackgroundColor=none;fontColor=#E4FDE1;sketch=1;curveFitting=1;jiggle=2;" vertex="1" parent="trcw09YQFbVrs_72Otnj-66">
          <mxGeometry x="40" width="140" height="30" as="geometry">
            <mxRectangle width="140" height="30" as="alternateBounds" />
          </mxGeometry>
        </mxCell>
        <mxCell id="trcw09YQFbVrs_72Otnj-54" value="&lt;div style=&quot;font-size: 23px;&quot;&gt;V1 only redirect&lt;/div&gt;&lt;div style=&quot;font-size: 23px;&quot;&gt;&lt;br style=&quot;font-size: 23px;&quot;&gt;&lt;/div&gt;" style="text;html=1;strokeColor=none;fillColor=none;align=left;verticalAlign=top;whiteSpace=wrap;rounded=1;fontSize=23;labelBackgroundColor=none;fontColor=#E4FDE1;sketch=1;curveFitting=1;jiggle=2;" vertex="1" parent="1">
          <mxGeometry x="20" y="20" width="180" height="40" as="geometry" />
        </mxCell>
        <mxCell id="trcw09YQFbVrs_72Otnj-102" value="heap_links" style="shape=table;startSize=30;container=1;collapsible=0;childLayout=tableLayout;fixedRows=1;rowLines=0;fontStyle=0;strokeColor=#028090;fontSize=16;rounded=1;labelBackgroundColor=none;fillColor=#F45B69;fontColor=#E4FDE1;sketch=1;curveFitting=1;jiggle=2;" vertex="1" parent="1">
          <mxGeometry x="320" y="520" width="180" height="150" as="geometry" />
        </mxCell>
        <mxCell id="trcw09YQFbVrs_72Otnj-103" value="" style="shape=tableRow;horizontal=0;startSize=0;swimlaneHead=0;swimlaneBody=0;top=0;left=0;bottom=0;right=0;collapsible=0;dropTarget=0;fillColor=none;points=[[0,0.5],[1,0.5]];portConstraint=eastwest;strokeColor=#028090;fontSize=16;perimeterSpacing=4;rounded=1;labelBackgroundColor=none;fontColor=#E4FDE1;sketch=1;curveFitting=1;jiggle=2;" vertex="1" parent="trcw09YQFbVrs_72Otnj-102">
          <mxGeometry y="30" width="180" height="30" as="geometry" />
        </mxCell>
        <mxCell id="trcw09YQFbVrs_72Otnj-104" value="&lt;b&gt;PK&lt;/b&gt;" style="shape=partialRectangle;html=1;whiteSpace=wrap;connectable=0;fillColor=none;top=0;left=0;bottom=0;right=0;overflow=hidden;pointerEvents=1;strokeColor=#028090;fontSize=16;rounded=1;labelBackgroundColor=none;fontColor=#E4FDE1;sketch=1;curveFitting=1;jiggle=2;" vertex="1" parent="trcw09YQFbVrs_72Otnj-103">
          <mxGeometry width="40" height="30" as="geometry">
            <mxRectangle width="40" height="30" as="alternateBounds" />
          </mxGeometry>
        </mxCell>
        <mxCell id="trcw09YQFbVrs_72Otnj-105" value="&lt;b&gt;id&lt;/b&gt;" style="shape=partialRectangle;html=1;whiteSpace=wrap;connectable=0;fillColor=none;top=0;left=0;bottom=0;right=0;align=left;spacingLeft=6;overflow=hidden;strokeColor=#028090;fontSize=16;perimeterSpacing=4;rounded=1;labelBackgroundColor=none;fontColor=#E4FDE1;sketch=1;curveFitting=1;jiggle=2;" vertex="1" parent="trcw09YQFbVrs_72Otnj-103">
          <mxGeometry x="40" width="140" height="30" as="geometry">
            <mxRectangle width="140" height="30" as="alternateBounds" />
          </mxGeometry>
        </mxCell>
        <mxCell id="trcw09YQFbVrs_72Otnj-106" value="" style="shape=tableRow;horizontal=0;startSize=0;swimlaneHead=0;swimlaneBody=0;top=0;left=0;bottom=0;right=0;collapsible=0;dropTarget=0;fillColor=none;points=[[0,0.5],[1,0.5]];portConstraint=eastwest;strokeColor=#028090;fontSize=16;rounded=1;labelBackgroundColor=none;fontColor=#E4FDE1;sketch=1;curveFitting=1;jiggle=2;" vertex="1" parent="trcw09YQFbVrs_72Otnj-102">
          <mxGeometry y="60" width="180" height="30" as="geometry" />
        </mxCell>
        <mxCell id="trcw09YQFbVrs_72Otnj-107" value="" style="shape=partialRectangle;html=1;whiteSpace=wrap;connectable=0;fillColor=none;top=0;left=0;bottom=0;right=0;overflow=hidden;strokeColor=#028090;fontSize=16;rounded=1;labelBackgroundColor=none;fontColor=#E4FDE1;sketch=1;curveFitting=1;jiggle=2;" vertex="1" parent="trcw09YQFbVrs_72Otnj-106">
          <mxGeometry width="40" height="30" as="geometry">
            <mxRectangle width="40" height="30" as="alternateBounds" />
          </mxGeometry>
        </mxCell>
        <mxCell id="trcw09YQFbVrs_72Otnj-108" value="original" style="shape=partialRectangle;html=1;whiteSpace=wrap;connectable=0;fillColor=none;top=0;left=0;bottom=0;right=0;align=left;spacingLeft=6;overflow=hidden;strokeColor=#028090;fontSize=16;rounded=1;labelBackgroundColor=none;fontColor=#E4FDE1;sketch=1;curveFitting=1;jiggle=2;" vertex="1" parent="trcw09YQFbVrs_72Otnj-106">
          <mxGeometry x="40" width="140" height="30" as="geometry">
            <mxRectangle width="140" height="30" as="alternateBounds" />
          </mxGeometry>
        </mxCell>
        <mxCell id="trcw09YQFbVrs_72Otnj-109" value="" style="shape=tableRow;horizontal=0;startSize=0;swimlaneHead=0;swimlaneBody=0;top=0;left=0;bottom=0;right=0;collapsible=0;dropTarget=0;fillColor=none;points=[[0,0.5],[1,0.5]];portConstraint=eastwest;strokeColor=#028090;fontSize=16;rounded=1;labelBackgroundColor=none;fontColor=#E4FDE1;sketch=1;curveFitting=1;jiggle=2;" vertex="1" parent="trcw09YQFbVrs_72Otnj-102">
          <mxGeometry y="90" width="180" height="30" as="geometry" />
        </mxCell>
        <mxCell id="trcw09YQFbVrs_72Otnj-110" value="" style="shape=partialRectangle;html=1;whiteSpace=wrap;connectable=0;fillColor=none;top=0;left=0;bottom=0;right=0;overflow=hidden;strokeColor=#028090;fontSize=16;rounded=1;labelBackgroundColor=none;fontColor=#E4FDE1;sketch=1;curveFitting=1;jiggle=2;" vertex="1" parent="trcw09YQFbVrs_72Otnj-109">
          <mxGeometry width="40" height="30" as="geometry">
            <mxRectangle width="40" height="30" as="alternateBounds" />
          </mxGeometry>
        </mxCell>
        <mxCell id="trcw09YQFbVrs_72Otnj-111" value="generated" style="shape=partialRectangle;html=1;whiteSpace=wrap;connectable=0;fillColor=none;top=0;left=0;bottom=0;right=0;align=left;spacingLeft=6;overflow=hidden;strokeColor=#028090;fontSize=16;rounded=1;labelBackgroundColor=none;fontColor=#E4FDE1;sketch=1;curveFitting=1;jiggle=2;" vertex="1" parent="trcw09YQFbVrs_72Otnj-109">
          <mxGeometry x="40" width="140" height="30" as="geometry">
            <mxRectangle width="140" height="30" as="alternateBounds" />
          </mxGeometry>
        </mxCell>
        <mxCell id="trcw09YQFbVrs_72Otnj-112" value="" style="shape=tableRow;horizontal=0;startSize=0;swimlaneHead=0;swimlaneBody=0;top=0;left=0;bottom=0;right=0;collapsible=0;dropTarget=0;fillColor=none;points=[[0,0.5],[1,0.5]];portConstraint=eastwest;strokeColor=#028090;fontSize=16;rounded=1;labelBackgroundColor=none;fontColor=#E4FDE1;sketch=1;curveFitting=1;jiggle=2;" vertex="1" parent="trcw09YQFbVrs_72Otnj-102">
          <mxGeometry y="120" width="180" height="30" as="geometry" />
        </mxCell>
        <mxCell id="trcw09YQFbVrs_72Otnj-113" value="" style="shape=partialRectangle;html=1;whiteSpace=wrap;connectable=0;fillColor=none;top=0;left=0;bottom=0;right=0;overflow=hidden;strokeColor=#028090;fontSize=16;rounded=1;labelBackgroundColor=none;fontColor=#E4FDE1;sketch=1;curveFitting=1;jiggle=2;" vertex="1" parent="trcw09YQFbVrs_72Otnj-112">
          <mxGeometry width="40" height="30" as="geometry">
            <mxRectangle width="40" height="30" as="alternateBounds" />
          </mxGeometry>
        </mxCell>
        <mxCell id="trcw09YQFbVrs_72Otnj-114" value="date_delete" style="shape=partialRectangle;html=1;whiteSpace=wrap;connectable=0;fillColor=none;top=0;left=0;bottom=0;right=0;align=left;spacingLeft=6;overflow=hidden;strokeColor=#028090;fontSize=16;rounded=1;labelBackgroundColor=none;fontColor=#E4FDE1;sketch=1;curveFitting=1;jiggle=2;" vertex="1" parent="trcw09YQFbVrs_72Otnj-112">
          <mxGeometry x="40" width="140" height="30" as="geometry">
            <mxRectangle width="140" height="30" as="alternateBounds" />
          </mxGeometry>
        </mxCell>
        <mxCell id="trcw09YQFbVrs_72Otnj-115" value="&lt;div style=&quot;font-size: 23px;&quot;&gt;V2 users&lt;br&gt;&lt;/div&gt;" style="text;html=1;strokeColor=none;fillColor=none;align=left;verticalAlign=top;whiteSpace=wrap;rounded=1;fontSize=23;labelBackgroundColor=none;fontColor=#E4FDE1;sketch=1;curveFitting=1;jiggle=2;" vertex="1" parent="1">
          <mxGeometry x="10" y="260" width="180" height="40" as="geometry" />
        </mxCell>
        <mxCell id="trcw09YQFbVrs_72Otnj-116" value="users" style="shape=table;startSize=30;container=1;collapsible=0;childLayout=tableLayout;fixedRows=1;rowLines=0;fontStyle=0;strokeColor=#028090;fontSize=16;rounded=1;labelBackgroundColor=none;fillColor=#F45B69;fontColor=#E4FDE1;sketch=1;curveFitting=1;jiggle=2;" vertex="1" parent="1">
          <mxGeometry x="60" y="340" width="180" height="120" as="geometry" />
        </mxCell>
        <mxCell id="trcw09YQFbVrs_72Otnj-117" value="" style="shape=tableRow;horizontal=0;startSize=0;swimlaneHead=0;swimlaneBody=0;top=0;left=0;bottom=0;right=0;collapsible=0;dropTarget=0;fillColor=none;points=[[0,0.5],[1,0.5]];portConstraint=eastwest;strokeColor=#028090;fontSize=16;perimeterSpacing=4;rounded=1;labelBackgroundColor=none;fontColor=#E4FDE1;sketch=1;curveFitting=1;jiggle=2;" vertex="1" parent="trcw09YQFbVrs_72Otnj-116">
          <mxGeometry y="30" width="180" height="30" as="geometry" />
        </mxCell>
        <mxCell id="trcw09YQFbVrs_72Otnj-118" value="&lt;b&gt;PK&lt;/b&gt;" style="shape=partialRectangle;html=1;whiteSpace=wrap;connectable=0;fillColor=none;top=0;left=0;bottom=0;right=0;overflow=hidden;pointerEvents=1;strokeColor=#028090;fontSize=16;rounded=1;labelBackgroundColor=none;fontColor=#E4FDE1;sketch=1;curveFitting=1;jiggle=2;" vertex="1" parent="trcw09YQFbVrs_72Otnj-117">
          <mxGeometry width="40" height="30" as="geometry">
            <mxRectangle width="40" height="30" as="alternateBounds" />
          </mxGeometry>
        </mxCell>
        <mxCell id="trcw09YQFbVrs_72Otnj-119" value="&lt;b&gt;id&lt;/b&gt;" style="shape=partialRectangle;html=1;whiteSpace=wrap;connectable=0;fillColor=none;top=0;left=0;bottom=0;right=0;align=left;spacingLeft=6;overflow=hidden;strokeColor=#028090;fontSize=16;perimeterSpacing=4;rounded=1;labelBackgroundColor=none;fontColor=#E4FDE1;sketch=1;curveFitting=1;jiggle=2;" vertex="1" parent="trcw09YQFbVrs_72Otnj-117">
          <mxGeometry x="40" width="140" height="30" as="geometry">
            <mxRectangle width="140" height="30" as="alternateBounds" />
          </mxGeometry>
        </mxCell>
        <mxCell id="trcw09YQFbVrs_72Otnj-120" value="" style="shape=tableRow;horizontal=0;startSize=0;swimlaneHead=0;swimlaneBody=0;top=0;left=0;bottom=0;right=0;collapsible=0;dropTarget=0;fillColor=none;points=[[0,0.5],[1,0.5]];portConstraint=eastwest;strokeColor=#028090;fontSize=16;rounded=1;labelBackgroundColor=none;fontColor=#E4FDE1;sketch=1;curveFitting=1;jiggle=2;" vertex="1" parent="trcw09YQFbVrs_72Otnj-116">
          <mxGeometry y="60" width="180" height="30" as="geometry" />
        </mxCell>
        <mxCell id="trcw09YQFbVrs_72Otnj-121" value="" style="shape=partialRectangle;html=1;whiteSpace=wrap;connectable=0;fillColor=none;top=0;left=0;bottom=0;right=0;overflow=hidden;strokeColor=#028090;fontSize=16;rounded=1;labelBackgroundColor=none;fontColor=#E4FDE1;sketch=1;curveFitting=1;jiggle=2;" vertex="1" parent="trcw09YQFbVrs_72Otnj-120">
          <mxGeometry width="40" height="30" as="geometry">
            <mxRectangle width="40" height="30" as="alternateBounds" />
          </mxGeometry>
        </mxCell>
        <mxCell id="trcw09YQFbVrs_72Otnj-122" value="login" style="shape=partialRectangle;html=1;whiteSpace=wrap;connectable=0;fillColor=none;top=0;left=0;bottom=0;right=0;align=left;spacingLeft=6;overflow=hidden;strokeColor=#028090;fontSize=16;rounded=1;labelBackgroundColor=none;fontColor=#E4FDE1;sketch=1;curveFitting=1;jiggle=2;" vertex="1" parent="trcw09YQFbVrs_72Otnj-120">
          <mxGeometry x="40" width="140" height="30" as="geometry">
            <mxRectangle width="140" height="30" as="alternateBounds" />
          </mxGeometry>
        </mxCell>
        <mxCell id="trcw09YQFbVrs_72Otnj-123" value="" style="shape=tableRow;horizontal=0;startSize=0;swimlaneHead=0;swimlaneBody=0;top=0;left=0;bottom=0;right=0;collapsible=0;dropTarget=0;fillColor=none;points=[[0,0.5],[1,0.5]];portConstraint=eastwest;strokeColor=#028090;fontSize=16;rounded=1;labelBackgroundColor=none;fontColor=#E4FDE1;sketch=1;curveFitting=1;jiggle=2;" vertex="1" parent="trcw09YQFbVrs_72Otnj-116">
          <mxGeometry y="90" width="180" height="30" as="geometry" />
        </mxCell>
        <mxCell id="trcw09YQFbVrs_72Otnj-124" value="" style="shape=partialRectangle;html=1;whiteSpace=wrap;connectable=0;fillColor=none;top=0;left=0;bottom=0;right=0;overflow=hidden;strokeColor=#028090;fontSize=16;rounded=1;labelBackgroundColor=none;fontColor=#E4FDE1;sketch=1;curveFitting=1;jiggle=2;" vertex="1" parent="trcw09YQFbVrs_72Otnj-123">
          <mxGeometry width="40" height="30" as="geometry">
            <mxRectangle width="40" height="30" as="alternateBounds" />
          </mxGeometry>
        </mxCell>
        <mxCell id="trcw09YQFbVrs_72Otnj-125" value="password" style="shape=partialRectangle;html=1;whiteSpace=wrap;connectable=0;fillColor=none;top=0;left=0;bottom=0;right=0;align=left;spacingLeft=6;overflow=hidden;strokeColor=#028090;fontSize=16;rounded=1;labelBackgroundColor=none;fontColor=#E4FDE1;sketch=1;curveFitting=1;jiggle=2;" vertex="1" parent="trcw09YQFbVrs_72Otnj-123">
          <mxGeometry x="40" width="140" height="30" as="geometry">
            <mxRectangle width="140" height="30" as="alternateBounds" />
          </mxGeometry>
        </mxCell>
        <mxCell id="trcw09YQFbVrs_72Otnj-129" value="links" style="shape=table;startSize=30;container=1;collapsible=0;childLayout=tableLayout;fixedRows=1;rowLines=0;fontStyle=0;strokeColor=#028090;fontSize=16;rounded=1;labelBackgroundColor=none;fillColor=#F45B69;fontColor=#E4FDE1;sketch=1;curveFitting=1;jiggle=2;" vertex="1" parent="1">
          <mxGeometry x="320" y="310" width="180" height="150" as="geometry" />
        </mxCell>
        <mxCell id="trcw09YQFbVrs_72Otnj-130" value="" style="shape=tableRow;horizontal=0;startSize=0;swimlaneHead=0;swimlaneBody=0;top=0;left=0;bottom=0;right=0;collapsible=0;dropTarget=0;fillColor=none;points=[[0,0.5],[1,0.5]];portConstraint=eastwest;strokeColor=#028090;fontSize=16;perimeterSpacing=4;rounded=1;labelBackgroundColor=none;fontColor=#E4FDE1;sketch=1;curveFitting=1;jiggle=2;" vertex="1" parent="trcw09YQFbVrs_72Otnj-129">
          <mxGeometry y="30" width="180" height="30" as="geometry" />
        </mxCell>
        <mxCell id="trcw09YQFbVrs_72Otnj-131" value="&lt;b&gt;PK&lt;/b&gt;" style="shape=partialRectangle;html=1;whiteSpace=wrap;connectable=0;fillColor=none;top=0;left=0;bottom=0;right=0;overflow=hidden;pointerEvents=1;strokeColor=#028090;fontSize=16;rounded=1;labelBackgroundColor=none;fontColor=#E4FDE1;sketch=1;curveFitting=1;jiggle=2;" vertex="1" parent="trcw09YQFbVrs_72Otnj-130">
          <mxGeometry width="40" height="30" as="geometry">
            <mxRectangle width="40" height="30" as="alternateBounds" />
          </mxGeometry>
        </mxCell>
        <mxCell id="trcw09YQFbVrs_72Otnj-132" value="&lt;b&gt;id&lt;/b&gt;" style="shape=partialRectangle;html=1;whiteSpace=wrap;connectable=0;fillColor=none;top=0;left=0;bottom=0;right=0;align=left;spacingLeft=6;overflow=hidden;strokeColor=#028090;fontSize=16;perimeterSpacing=4;rounded=1;labelBackgroundColor=none;fontColor=#E4FDE1;sketch=1;curveFitting=1;jiggle=2;" vertex="1" parent="trcw09YQFbVrs_72Otnj-130">
          <mxGeometry x="40" width="140" height="30" as="geometry">
            <mxRectangle width="140" height="30" as="alternateBounds" />
          </mxGeometry>
        </mxCell>
        <mxCell id="trcw09YQFbVrs_72Otnj-133" value="" style="shape=tableRow;horizontal=0;startSize=0;swimlaneHead=0;swimlaneBody=0;top=0;left=0;bottom=0;right=0;collapsible=0;dropTarget=0;fillColor=none;points=[[0,0.5],[1,0.5]];portConstraint=eastwest;strokeColor=#028090;fontSize=16;rounded=1;labelBackgroundColor=none;fontColor=#E4FDE1;sketch=1;curveFitting=1;jiggle=2;" vertex="1" parent="trcw09YQFbVrs_72Otnj-129">
          <mxGeometry y="60" width="180" height="30" as="geometry" />
        </mxCell>
        <mxCell id="trcw09YQFbVrs_72Otnj-134" value="" style="shape=partialRectangle;html=1;whiteSpace=wrap;connectable=0;fillColor=none;top=0;left=0;bottom=0;right=0;overflow=hidden;strokeColor=#028090;fontSize=16;rounded=1;labelBackgroundColor=none;fontColor=#E4FDE1;sketch=1;curveFitting=1;jiggle=2;" vertex="1" parent="trcw09YQFbVrs_72Otnj-133">
          <mxGeometry width="40" height="30" as="geometry">
            <mxRectangle width="40" height="30" as="alternateBounds" />
          </mxGeometry>
        </mxCell>
        <mxCell id="trcw09YQFbVrs_72Otnj-135" value="original" style="shape=partialRectangle;html=1;whiteSpace=wrap;connectable=0;fillColor=none;top=0;left=0;bottom=0;right=0;align=left;spacingLeft=6;overflow=hidden;strokeColor=#028090;fontSize=16;rounded=1;labelBackgroundColor=none;fontColor=#E4FDE1;sketch=1;curveFitting=1;jiggle=2;" vertex="1" parent="trcw09YQFbVrs_72Otnj-133">
          <mxGeometry x="40" width="140" height="30" as="geometry">
            <mxRectangle width="140" height="30" as="alternateBounds" />
          </mxGeometry>
        </mxCell>
        <mxCell id="trcw09YQFbVrs_72Otnj-136" value="" style="shape=tableRow;horizontal=0;startSize=0;swimlaneHead=0;swimlaneBody=0;top=0;left=0;bottom=0;right=0;collapsible=0;dropTarget=0;fillColor=none;points=[[0,0.5],[1,0.5]];portConstraint=eastwest;strokeColor=#028090;fontSize=16;rounded=1;labelBackgroundColor=none;fontColor=#E4FDE1;sketch=1;curveFitting=1;jiggle=2;" vertex="1" parent="trcw09YQFbVrs_72Otnj-129">
          <mxGeometry y="90" width="180" height="30" as="geometry" />
        </mxCell>
        <mxCell id="trcw09YQFbVrs_72Otnj-137" value="" style="shape=partialRectangle;html=1;whiteSpace=wrap;connectable=0;fillColor=none;top=0;left=0;bottom=0;right=0;overflow=hidden;strokeColor=#028090;fontSize=16;rounded=1;labelBackgroundColor=none;fontColor=#E4FDE1;sketch=1;curveFitting=1;jiggle=2;" vertex="1" parent="trcw09YQFbVrs_72Otnj-136">
          <mxGeometry width="40" height="30" as="geometry">
            <mxRectangle width="40" height="30" as="alternateBounds" />
          </mxGeometry>
        </mxCell>
        <mxCell id="trcw09YQFbVrs_72Otnj-138" value="generated" style="shape=partialRectangle;html=1;whiteSpace=wrap;connectable=0;fillColor=none;top=0;left=0;bottom=0;right=0;align=left;spacingLeft=6;overflow=hidden;strokeColor=#028090;fontSize=16;rounded=1;labelBackgroundColor=none;fontColor=#E4FDE1;sketch=1;curveFitting=1;jiggle=2;" vertex="1" parent="trcw09YQFbVrs_72Otnj-136">
          <mxGeometry x="40" width="140" height="30" as="geometry">
            <mxRectangle width="140" height="30" as="alternateBounds" />
          </mxGeometry>
        </mxCell>
        <mxCell id="trcw09YQFbVrs_72Otnj-142" value="" style="shape=tableRow;horizontal=0;startSize=0;swimlaneHead=0;swimlaneBody=0;top=0;left=0;bottom=0;right=0;collapsible=0;dropTarget=0;fillColor=none;points=[[0,0.5],[1,0.5]];portConstraint=eastwest;strokeColor=#028090;fontSize=16;rounded=1;labelBackgroundColor=none;fontColor=#E4FDE1;sketch=1;curveFitting=1;jiggle=2;" vertex="1" parent="trcw09YQFbVrs_72Otnj-129">
          <mxGeometry y="120" width="180" height="30" as="geometry" />
        </mxCell>
        <mxCell id="trcw09YQFbVrs_72Otnj-143" value="&lt;b&gt;FK&lt;/b&gt;" style="shape=partialRectangle;html=1;whiteSpace=wrap;connectable=0;fillColor=none;top=0;left=0;bottom=0;right=0;overflow=hidden;strokeColor=#028090;fontSize=16;rounded=1;labelBackgroundColor=none;fontColor=#E4FDE1;sketch=1;curveFitting=1;jiggle=2;" vertex="1" parent="trcw09YQFbVrs_72Otnj-142">
          <mxGeometry width="40" height="30" as="geometry">
            <mxRectangle width="40" height="30" as="alternateBounds" />
          </mxGeometry>
        </mxCell>
        <mxCell id="trcw09YQFbVrs_72Otnj-144" value="&lt;b&gt;id_user&lt;/b&gt;" style="shape=partialRectangle;html=1;whiteSpace=wrap;connectable=0;fillColor=none;top=0;left=0;bottom=0;right=0;align=left;spacingLeft=6;overflow=hidden;strokeColor=#028090;fontSize=16;rounded=1;labelBackgroundColor=none;fontColor=#E4FDE1;sketch=1;curveFitting=1;jiggle=2;" vertex="1" parent="trcw09YQFbVrs_72Otnj-142">
          <mxGeometry x="40" width="140" height="30" as="geometry">
            <mxRectangle width="140" height="30" as="alternateBounds" />
          </mxGeometry>
        </mxCell>
        <mxCell id="trcw09YQFbVrs_72Otnj-145" style="edgeStyle=orthogonalEdgeStyle;rounded=1;orthogonalLoop=1;jettySize=auto;html=1;exitX=0;exitY=0.5;exitDx=0;exitDy=0;entryX=0.98;entryY=0.505;entryDx=0;entryDy=0;startArrow=ERmany;startFill=0;endArrow=none;endFill=0;entryPerimeter=0;labelBackgroundColor=none;strokeColor=#028090;fontColor=default;fontStyle=1;sketch=1;curveFitting=1;jiggle=2;" edge="1" parent="1" source="trcw09YQFbVrs_72Otnj-142" target="trcw09YQFbVrs_72Otnj-117">
          <mxGeometry relative="1" as="geometry" />
        </mxCell>
        <mxCell id="trcw09YQFbVrs_72Otnj-146" value="states" style="shape=table;startSize=30;container=1;collapsible=0;childLayout=tableLayout;fixedRows=1;rowLines=0;fontStyle=0;strokeColor=#028090;fontSize=16;rounded=1;labelBackgroundColor=none;fillColor=#F45B69;fontColor=#E4FDE1;sketch=1;curveFitting=1;jiggle=2;" vertex="1" parent="1">
          <mxGeometry x="570" y="325" width="180" height="210" as="geometry" />
        </mxCell>
        <mxCell id="trcw09YQFbVrs_72Otnj-147" value="" style="shape=tableRow;horizontal=0;startSize=0;swimlaneHead=0;swimlaneBody=0;top=0;left=0;bottom=0;right=0;collapsible=0;dropTarget=0;fillColor=none;points=[[0,0.5],[1,0.5]];portConstraint=eastwest;strokeColor=#028090;fontSize=16;perimeterSpacing=4;rounded=1;labelBackgroundColor=none;fontColor=#E4FDE1;sketch=1;curveFitting=1;jiggle=2;" vertex="1" parent="trcw09YQFbVrs_72Otnj-146">
          <mxGeometry y="30" width="180" height="30" as="geometry" />
        </mxCell>
        <mxCell id="trcw09YQFbVrs_72Otnj-148" value="&lt;b&gt;FK&lt;/b&gt;" style="shape=partialRectangle;html=1;whiteSpace=wrap;connectable=0;fillColor=none;top=0;left=0;bottom=0;right=0;overflow=hidden;pointerEvents=1;strokeColor=#028090;fontSize=16;rounded=1;labelBackgroundColor=none;fontColor=#E4FDE1;sketch=1;curveFitting=1;jiggle=2;" vertex="1" parent="trcw09YQFbVrs_72Otnj-147">
          <mxGeometry width="40" height="30" as="geometry">
            <mxRectangle width="40" height="30" as="alternateBounds" />
          </mxGeometry>
        </mxCell>
        <mxCell id="trcw09YQFbVrs_72Otnj-149" value="&lt;b&gt;id&lt;/b&gt;" style="shape=partialRectangle;html=1;whiteSpace=wrap;connectable=0;fillColor=none;top=0;left=0;bottom=0;right=0;align=left;spacingLeft=6;overflow=hidden;strokeColor=#028090;fontSize=16;perimeterSpacing=4;rounded=1;labelBackgroundColor=none;fontColor=#E4FDE1;sketch=1;curveFitting=1;jiggle=2;" vertex="1" parent="trcw09YQFbVrs_72Otnj-147">
          <mxGeometry x="40" width="140" height="30" as="geometry">
            <mxRectangle width="140" height="30" as="alternateBounds" />
          </mxGeometry>
        </mxCell>
        <mxCell id="trcw09YQFbVrs_72Otnj-150" value="" style="shape=tableRow;horizontal=0;startSize=0;swimlaneHead=0;swimlaneBody=0;top=0;left=0;bottom=0;right=0;collapsible=0;dropTarget=0;fillColor=none;points=[[0,0.5],[1,0.5]];portConstraint=eastwest;strokeColor=#028090;fontSize=16;rounded=1;labelBackgroundColor=none;fontColor=#E4FDE1;sketch=1;curveFitting=1;jiggle=2;" vertex="1" parent="trcw09YQFbVrs_72Otnj-146">
          <mxGeometry y="60" width="180" height="30" as="geometry" />
        </mxCell>
        <mxCell id="trcw09YQFbVrs_72Otnj-151" value="" style="shape=partialRectangle;html=1;whiteSpace=wrap;connectable=0;fillColor=none;top=0;left=0;bottom=0;right=0;overflow=hidden;strokeColor=#028090;fontSize=16;rounded=1;labelBackgroundColor=none;fontColor=#E4FDE1;sketch=1;curveFitting=1;jiggle=2;" vertex="1" parent="trcw09YQFbVrs_72Otnj-150">
          <mxGeometry width="40" height="30" as="geometry">
            <mxRectangle width="40" height="30" as="alternateBounds" />
          </mxGeometry>
        </mxCell>
        <mxCell id="trcw09YQFbVrs_72Otnj-152" value="title" style="shape=partialRectangle;html=1;whiteSpace=wrap;connectable=0;fillColor=none;top=0;left=0;bottom=0;right=0;align=left;spacingLeft=6;overflow=hidden;strokeColor=#028090;fontSize=16;rounded=1;labelBackgroundColor=none;fontColor=#E4FDE1;sketch=1;curveFitting=1;jiggle=2;" vertex="1" parent="trcw09YQFbVrs_72Otnj-150">
          <mxGeometry x="40" width="140" height="30" as="geometry">
            <mxRectangle width="140" height="30" as="alternateBounds" />
          </mxGeometry>
        </mxCell>
        <mxCell id="trcw09YQFbVrs_72Otnj-139" value="" style="shape=tableRow;horizontal=0;startSize=0;swimlaneHead=0;swimlaneBody=0;top=0;left=0;bottom=0;right=0;collapsible=0;dropTarget=0;fillColor=none;points=[[0,0.5],[1,0.5]];portConstraint=eastwest;strokeColor=#028090;fontSize=16;rounded=1;labelBackgroundColor=none;fontColor=#E4FDE1;sketch=1;curveFitting=1;jiggle=2;" vertex="1" parent="trcw09YQFbVrs_72Otnj-146">
          <mxGeometry y="90" width="180" height="30" as="geometry" />
        </mxCell>
        <mxCell id="trcw09YQFbVrs_72Otnj-140" value="" style="shape=partialRectangle;html=1;whiteSpace=wrap;connectable=0;fillColor=none;top=0;left=0;bottom=0;right=0;overflow=hidden;strokeColor=#028090;fontSize=16;rounded=1;labelBackgroundColor=none;fontColor=#E4FDE1;sketch=1;curveFitting=1;jiggle=2;" vertex="1" parent="trcw09YQFbVrs_72Otnj-139">
          <mxGeometry width="40" height="30" as="geometry">
            <mxRectangle width="40" height="30" as="alternateBounds" />
          </mxGeometry>
        </mxCell>
        <mxCell id="trcw09YQFbVrs_72Otnj-141" value="date_delete" style="shape=partialRectangle;html=1;whiteSpace=wrap;connectable=0;fillColor=none;top=0;left=0;bottom=0;right=0;align=left;spacingLeft=6;overflow=hidden;strokeColor=#028090;fontSize=16;rounded=1;labelBackgroundColor=none;fontColor=#E4FDE1;sketch=1;curveFitting=1;jiggle=2;" vertex="1" parent="trcw09YQFbVrs_72Otnj-139">
          <mxGeometry x="40" width="140" height="30" as="geometry">
            <mxRectangle width="140" height="30" as="alternateBounds" />
          </mxGeometry>
        </mxCell>
        <mxCell id="trcw09YQFbVrs_72Otnj-210" value="" style="shape=tableRow;horizontal=0;startSize=0;swimlaneHead=0;swimlaneBody=0;top=0;left=0;bottom=0;right=0;collapsible=0;dropTarget=0;fillColor=none;points=[[0,0.5],[1,0.5]];portConstraint=eastwest;strokeColor=#028090;fontSize=16;rounded=1;labelBackgroundColor=none;fontColor=#E4FDE1;sketch=1;curveFitting=1;jiggle=2;" vertex="1" parent="trcw09YQFbVrs_72Otnj-146">
          <mxGeometry y="120" width="180" height="30" as="geometry" />
        </mxCell>
        <mxCell id="trcw09YQFbVrs_72Otnj-211" value="" style="shape=partialRectangle;html=1;whiteSpace=wrap;connectable=0;fillColor=none;top=0;left=0;bottom=0;right=0;overflow=hidden;strokeColor=#028090;fontSize=16;rounded=1;labelBackgroundColor=none;fontColor=#E4FDE1;sketch=1;curveFitting=1;jiggle=2;" vertex="1" parent="trcw09YQFbVrs_72Otnj-210">
          <mxGeometry width="40" height="30" as="geometry">
            <mxRectangle width="40" height="30" as="alternateBounds" />
          </mxGeometry>
        </mxCell>
        <mxCell id="trcw09YQFbVrs_72Otnj-212" value="counter" style="shape=partialRectangle;html=1;whiteSpace=wrap;connectable=0;fillColor=none;top=0;left=0;bottom=0;right=0;align=left;spacingLeft=6;overflow=hidden;strokeColor=#028090;fontSize=16;rounded=1;labelBackgroundColor=none;fontColor=#E4FDE1;sketch=1;curveFitting=1;jiggle=2;" vertex="1" parent="trcw09YQFbVrs_72Otnj-210">
          <mxGeometry x="40" width="140" height="30" as="geometry">
            <mxRectangle width="140" height="30" as="alternateBounds" />
          </mxGeometry>
        </mxCell>
        <mxCell id="trcw09YQFbVrs_72Otnj-241" value="" style="shape=tableRow;horizontal=0;startSize=0;swimlaneHead=0;swimlaneBody=0;top=0;left=0;bottom=0;right=0;collapsible=0;dropTarget=0;fillColor=none;points=[[0,0.5],[1,0.5]];portConstraint=eastwest;strokeColor=#028090;fontSize=16;rounded=1;labelBackgroundColor=none;fontColor=#E4FDE1;sketch=1;curveFitting=1;jiggle=2;" vertex="1" parent="trcw09YQFbVrs_72Otnj-146">
          <mxGeometry y="150" width="180" height="30" as="geometry" />
        </mxCell>
        <mxCell id="trcw09YQFbVrs_72Otnj-242" value="" style="shape=partialRectangle;html=1;whiteSpace=wrap;connectable=0;fillColor=none;top=0;left=0;bottom=0;right=0;overflow=hidden;strokeColor=#028090;fontSize=16;rounded=1;labelBackgroundColor=none;fontColor=#E4FDE1;sketch=1;curveFitting=1;jiggle=2;" vertex="1" parent="trcw09YQFbVrs_72Otnj-241">
          <mxGeometry width="40" height="30" as="geometry">
            <mxRectangle width="40" height="30" as="alternateBounds" />
          </mxGeometry>
        </mxCell>
        <mxCell id="trcw09YQFbVrs_72Otnj-243" value="status_original" style="shape=partialRectangle;html=1;whiteSpace=wrap;connectable=0;fillColor=none;top=0;left=0;bottom=0;right=0;align=left;spacingLeft=6;overflow=hidden;strokeColor=#028090;fontSize=16;rounded=1;labelBackgroundColor=none;fontColor=#E4FDE1;sketch=1;curveFitting=1;jiggle=2;" vertex="1" parent="trcw09YQFbVrs_72Otnj-241">
          <mxGeometry x="40" width="140" height="30" as="geometry">
            <mxRectangle width="140" height="30" as="alternateBounds" />
          </mxGeometry>
        </mxCell>
        <mxCell id="trcw09YQFbVrs_72Otnj-244" value="" style="shape=tableRow;horizontal=0;startSize=0;swimlaneHead=0;swimlaneBody=0;top=0;left=0;bottom=0;right=0;collapsible=0;dropTarget=0;fillColor=none;points=[[0,0.5],[1,0.5]];portConstraint=eastwest;strokeColor=#028090;fontSize=16;rounded=1;labelBackgroundColor=none;fontColor=#E4FDE1;sketch=1;curveFitting=1;jiggle=2;" vertex="1" parent="trcw09YQFbVrs_72Otnj-146">
          <mxGeometry y="180" width="180" height="30" as="geometry" />
        </mxCell>
        <mxCell id="trcw09YQFbVrs_72Otnj-245" value="" style="shape=partialRectangle;html=1;whiteSpace=wrap;connectable=0;fillColor=none;top=0;left=0;bottom=0;right=0;overflow=hidden;strokeColor=#028090;fontSize=16;rounded=1;labelBackgroundColor=none;fontColor=#E4FDE1;sketch=1;curveFitting=1;jiggle=2;" vertex="1" parent="trcw09YQFbVrs_72Otnj-244">
          <mxGeometry width="40" height="30" as="geometry">
            <mxRectangle width="40" height="30" as="alternateBounds" />
          </mxGeometry>
        </mxCell>
        <mxCell id="trcw09YQFbVrs_72Otnj-246" value="status_generated" style="shape=partialRectangle;html=1;whiteSpace=wrap;connectable=0;fillColor=none;top=0;left=0;bottom=0;right=0;align=left;spacingLeft=6;overflow=hidden;strokeColor=#028090;fontSize=16;rounded=1;labelBackgroundColor=none;fontColor=#E4FDE1;sketch=1;curveFitting=1;jiggle=2;" vertex="1" parent="trcw09YQFbVrs_72Otnj-244">
          <mxGeometry x="40" width="140" height="30" as="geometry">
            <mxRectangle width="140" height="30" as="alternateBounds" />
          </mxGeometry>
        </mxCell>
        <mxCell id="trcw09YQFbVrs_72Otnj-159" style="edgeStyle=orthogonalEdgeStyle;rounded=1;orthogonalLoop=1;jettySize=auto;html=1;exitX=0.022;exitY=0.498;exitDx=0;exitDy=0;entryX=1;entryY=0.25;entryDx=0;entryDy=0;endArrow=none;endFill=0;exitPerimeter=0;labelBackgroundColor=none;strokeColor=#028090;fontColor=default;sketch=1;curveFitting=1;jiggle=2;" edge="1" parent="1" source="trcw09YQFbVrs_72Otnj-147" target="trcw09YQFbVrs_72Otnj-129">
          <mxGeometry relative="1" as="geometry" />
        </mxCell>
        <mxCell id="trcw09YQFbVrs_72Otnj-161" value="heap_links" style="shape=table;startSize=30;container=1;collapsible=0;childLayout=tableLayout;fixedRows=1;rowLines=0;fontStyle=0;strokeColor=#028090;fontSize=16;rounded=1;labelBackgroundColor=none;fillColor=#F45B69;fontColor=#E4FDE1;sketch=1;curveFitting=1;jiggle=2;" vertex="1" parent="1">
          <mxGeometry x="270" y="960" width="180" height="150" as="geometry" />
        </mxCell>
        <mxCell id="trcw09YQFbVrs_72Otnj-162" value="" style="shape=tableRow;horizontal=0;startSize=0;swimlaneHead=0;swimlaneBody=0;top=0;left=0;bottom=0;right=0;collapsible=0;dropTarget=0;fillColor=none;points=[[0,0.5],[1,0.5]];portConstraint=eastwest;strokeColor=#028090;fontSize=16;perimeterSpacing=4;rounded=1;labelBackgroundColor=none;fontColor=#E4FDE1;sketch=1;curveFitting=1;jiggle=2;" vertex="1" parent="trcw09YQFbVrs_72Otnj-161">
          <mxGeometry y="30" width="180" height="30" as="geometry" />
        </mxCell>
        <mxCell id="trcw09YQFbVrs_72Otnj-163" value="&lt;b&gt;PK&lt;/b&gt;" style="shape=partialRectangle;html=1;whiteSpace=wrap;connectable=0;fillColor=none;top=0;left=0;bottom=0;right=0;overflow=hidden;pointerEvents=1;strokeColor=#028090;fontSize=16;rounded=1;labelBackgroundColor=none;fontColor=#E4FDE1;sketch=1;curveFitting=1;jiggle=2;" vertex="1" parent="trcw09YQFbVrs_72Otnj-162">
          <mxGeometry width="40" height="30" as="geometry">
            <mxRectangle width="40" height="30" as="alternateBounds" />
          </mxGeometry>
        </mxCell>
        <mxCell id="trcw09YQFbVrs_72Otnj-164" value="&lt;b&gt;id&lt;/b&gt;" style="shape=partialRectangle;html=1;whiteSpace=wrap;connectable=0;fillColor=none;top=0;left=0;bottom=0;right=0;align=left;spacingLeft=6;overflow=hidden;strokeColor=#028090;fontSize=16;perimeterSpacing=4;rounded=1;labelBackgroundColor=none;fontColor=#E4FDE1;sketch=1;curveFitting=1;jiggle=2;" vertex="1" parent="trcw09YQFbVrs_72Otnj-162">
          <mxGeometry x="40" width="140" height="30" as="geometry">
            <mxRectangle width="140" height="30" as="alternateBounds" />
          </mxGeometry>
        </mxCell>
        <mxCell id="trcw09YQFbVrs_72Otnj-165" value="" style="shape=tableRow;horizontal=0;startSize=0;swimlaneHead=0;swimlaneBody=0;top=0;left=0;bottom=0;right=0;collapsible=0;dropTarget=0;fillColor=none;points=[[0,0.5],[1,0.5]];portConstraint=eastwest;strokeColor=#028090;fontSize=16;rounded=1;labelBackgroundColor=none;fontColor=#E4FDE1;sketch=1;curveFitting=1;jiggle=2;" vertex="1" parent="trcw09YQFbVrs_72Otnj-161">
          <mxGeometry y="60" width="180" height="30" as="geometry" />
        </mxCell>
        <mxCell id="trcw09YQFbVrs_72Otnj-166" value="" style="shape=partialRectangle;html=1;whiteSpace=wrap;connectable=0;fillColor=none;top=0;left=0;bottom=0;right=0;overflow=hidden;strokeColor=#028090;fontSize=16;rounded=1;labelBackgroundColor=none;fontColor=#E4FDE1;sketch=1;curveFitting=1;jiggle=2;" vertex="1" parent="trcw09YQFbVrs_72Otnj-165">
          <mxGeometry width="40" height="30" as="geometry">
            <mxRectangle width="40" height="30" as="alternateBounds" />
          </mxGeometry>
        </mxCell>
        <mxCell id="trcw09YQFbVrs_72Otnj-167" value="original" style="shape=partialRectangle;html=1;whiteSpace=wrap;connectable=0;fillColor=none;top=0;left=0;bottom=0;right=0;align=left;spacingLeft=6;overflow=hidden;strokeColor=#028090;fontSize=16;rounded=1;labelBackgroundColor=none;fontColor=#E4FDE1;sketch=1;curveFitting=1;jiggle=2;" vertex="1" parent="trcw09YQFbVrs_72Otnj-165">
          <mxGeometry x="40" width="140" height="30" as="geometry">
            <mxRectangle width="140" height="30" as="alternateBounds" />
          </mxGeometry>
        </mxCell>
        <mxCell id="trcw09YQFbVrs_72Otnj-168" value="" style="shape=tableRow;horizontal=0;startSize=0;swimlaneHead=0;swimlaneBody=0;top=0;left=0;bottom=0;right=0;collapsible=0;dropTarget=0;fillColor=none;points=[[0,0.5],[1,0.5]];portConstraint=eastwest;strokeColor=#028090;fontSize=16;rounded=1;labelBackgroundColor=none;fontColor=#E4FDE1;sketch=1;curveFitting=1;jiggle=2;" vertex="1" parent="trcw09YQFbVrs_72Otnj-161">
          <mxGeometry y="90" width="180" height="30" as="geometry" />
        </mxCell>
        <mxCell id="trcw09YQFbVrs_72Otnj-169" value="" style="shape=partialRectangle;html=1;whiteSpace=wrap;connectable=0;fillColor=none;top=0;left=0;bottom=0;right=0;overflow=hidden;strokeColor=#028090;fontSize=16;rounded=1;labelBackgroundColor=none;fontColor=#E4FDE1;sketch=1;curveFitting=1;jiggle=2;" vertex="1" parent="trcw09YQFbVrs_72Otnj-168">
          <mxGeometry width="40" height="30" as="geometry">
            <mxRectangle width="40" height="30" as="alternateBounds" />
          </mxGeometry>
        </mxCell>
        <mxCell id="trcw09YQFbVrs_72Otnj-170" value="generated" style="shape=partialRectangle;html=1;whiteSpace=wrap;connectable=0;fillColor=none;top=0;left=0;bottom=0;right=0;align=left;spacingLeft=6;overflow=hidden;strokeColor=#028090;fontSize=16;rounded=1;labelBackgroundColor=none;fontColor=#E4FDE1;sketch=1;curveFitting=1;jiggle=2;" vertex="1" parent="trcw09YQFbVrs_72Otnj-168">
          <mxGeometry x="40" width="140" height="30" as="geometry">
            <mxRectangle width="140" height="30" as="alternateBounds" />
          </mxGeometry>
        </mxCell>
        <mxCell id="trcw09YQFbVrs_72Otnj-171" value="" style="shape=tableRow;horizontal=0;startSize=0;swimlaneHead=0;swimlaneBody=0;top=0;left=0;bottom=0;right=0;collapsible=0;dropTarget=0;fillColor=none;points=[[0,0.5],[1,0.5]];portConstraint=eastwest;strokeColor=#028090;fontSize=16;rounded=1;labelBackgroundColor=none;fontColor=#E4FDE1;sketch=1;curveFitting=1;jiggle=2;" vertex="1" parent="trcw09YQFbVrs_72Otnj-161">
          <mxGeometry y="120" width="180" height="30" as="geometry" />
        </mxCell>
        <mxCell id="trcw09YQFbVrs_72Otnj-172" value="" style="shape=partialRectangle;html=1;whiteSpace=wrap;connectable=0;fillColor=none;top=0;left=0;bottom=0;right=0;overflow=hidden;strokeColor=#028090;fontSize=16;rounded=1;labelBackgroundColor=none;fontColor=#E4FDE1;sketch=1;curveFitting=1;jiggle=2;" vertex="1" parent="trcw09YQFbVrs_72Otnj-171">
          <mxGeometry width="40" height="30" as="geometry">
            <mxRectangle width="40" height="30" as="alternateBounds" />
          </mxGeometry>
        </mxCell>
        <mxCell id="trcw09YQFbVrs_72Otnj-173" value="date_delete" style="shape=partialRectangle;html=1;whiteSpace=wrap;connectable=0;fillColor=none;top=0;left=0;bottom=0;right=0;align=left;spacingLeft=6;overflow=hidden;strokeColor=#028090;fontSize=16;rounded=1;labelBackgroundColor=none;fontColor=#E4FDE1;sketch=1;curveFitting=1;jiggle=2;" vertex="1" parent="trcw09YQFbVrs_72Otnj-171">
          <mxGeometry x="40" width="140" height="30" as="geometry">
            <mxRectangle width="140" height="30" as="alternateBounds" />
          </mxGeometry>
        </mxCell>
        <mxCell id="trcw09YQFbVrs_72Otnj-174" value="&lt;div style=&quot;font-size: 23px;&quot;&gt;V3 add lists&lt;br&gt;&lt;/div&gt;" style="text;html=1;strokeColor=none;fillColor=none;align=left;verticalAlign=top;whiteSpace=wrap;rounded=1;fontSize=23;labelBackgroundColor=none;fontColor=#E4FDE1;sketch=1;curveFitting=1;jiggle=2;" vertex="1" parent="1">
          <mxGeometry x="10" y="720" width="180" height="40" as="geometry" />
        </mxCell>
        <mxCell id="trcw09YQFbVrs_72Otnj-175" value="users" style="shape=table;startSize=30;container=1;collapsible=0;childLayout=tableLayout;fixedRows=1;rowLines=0;fontStyle=0;strokeColor=#028090;fontSize=16;rounded=1;labelBackgroundColor=none;fillColor=#F45B69;fontColor=#E4FDE1;sketch=1;curveFitting=1;jiggle=2;" vertex="1" parent="1">
          <mxGeometry x="20" y="790" width="180" height="120" as="geometry" />
        </mxCell>
        <mxCell id="trcw09YQFbVrs_72Otnj-176" value="" style="shape=tableRow;horizontal=0;startSize=0;swimlaneHead=0;swimlaneBody=0;top=0;left=0;bottom=0;right=0;collapsible=0;dropTarget=0;fillColor=none;points=[[0,0.5],[1,0.5]];portConstraint=eastwest;strokeColor=#028090;fontSize=16;perimeterSpacing=4;rounded=1;labelBackgroundColor=none;fontColor=#E4FDE1;sketch=1;curveFitting=1;jiggle=2;" vertex="1" parent="trcw09YQFbVrs_72Otnj-175">
          <mxGeometry y="30" width="180" height="30" as="geometry" />
        </mxCell>
        <mxCell id="trcw09YQFbVrs_72Otnj-177" value="&lt;b&gt;PK&lt;/b&gt;" style="shape=partialRectangle;html=1;whiteSpace=wrap;connectable=0;fillColor=none;top=0;left=0;bottom=0;right=0;overflow=hidden;pointerEvents=1;strokeColor=#028090;fontSize=16;rounded=1;labelBackgroundColor=none;fontColor=#E4FDE1;sketch=1;curveFitting=1;jiggle=2;" vertex="1" parent="trcw09YQFbVrs_72Otnj-176">
          <mxGeometry width="40" height="30" as="geometry">
            <mxRectangle width="40" height="30" as="alternateBounds" />
          </mxGeometry>
        </mxCell>
        <mxCell id="trcw09YQFbVrs_72Otnj-178" value="&lt;b&gt;id&lt;/b&gt;" style="shape=partialRectangle;html=1;whiteSpace=wrap;connectable=0;fillColor=none;top=0;left=0;bottom=0;right=0;align=left;spacingLeft=6;overflow=hidden;strokeColor=#028090;fontSize=16;perimeterSpacing=4;rounded=1;labelBackgroundColor=none;fontColor=#E4FDE1;sketch=1;curveFitting=1;jiggle=2;" vertex="1" parent="trcw09YQFbVrs_72Otnj-176">
          <mxGeometry x="40" width="140" height="30" as="geometry">
            <mxRectangle width="140" height="30" as="alternateBounds" />
          </mxGeometry>
        </mxCell>
        <mxCell id="trcw09YQFbVrs_72Otnj-179" value="" style="shape=tableRow;horizontal=0;startSize=0;swimlaneHead=0;swimlaneBody=0;top=0;left=0;bottom=0;right=0;collapsible=0;dropTarget=0;fillColor=none;points=[[0,0.5],[1,0.5]];portConstraint=eastwest;strokeColor=#028090;fontSize=16;rounded=1;labelBackgroundColor=none;fontColor=#E4FDE1;sketch=1;curveFitting=1;jiggle=2;" vertex="1" parent="trcw09YQFbVrs_72Otnj-175">
          <mxGeometry y="60" width="180" height="30" as="geometry" />
        </mxCell>
        <mxCell id="trcw09YQFbVrs_72Otnj-180" value="" style="shape=partialRectangle;html=1;whiteSpace=wrap;connectable=0;fillColor=none;top=0;left=0;bottom=0;right=0;overflow=hidden;strokeColor=#028090;fontSize=16;rounded=1;labelBackgroundColor=none;fontColor=#E4FDE1;sketch=1;curveFitting=1;jiggle=2;" vertex="1" parent="trcw09YQFbVrs_72Otnj-179">
          <mxGeometry width="40" height="30" as="geometry">
            <mxRectangle width="40" height="30" as="alternateBounds" />
          </mxGeometry>
        </mxCell>
        <mxCell id="trcw09YQFbVrs_72Otnj-181" value="login" style="shape=partialRectangle;html=1;whiteSpace=wrap;connectable=0;fillColor=none;top=0;left=0;bottom=0;right=0;align=left;spacingLeft=6;overflow=hidden;strokeColor=#028090;fontSize=16;rounded=1;labelBackgroundColor=none;fontColor=#E4FDE1;sketch=1;curveFitting=1;jiggle=2;" vertex="1" parent="trcw09YQFbVrs_72Otnj-179">
          <mxGeometry x="40" width="140" height="30" as="geometry">
            <mxRectangle width="140" height="30" as="alternateBounds" />
          </mxGeometry>
        </mxCell>
        <mxCell id="trcw09YQFbVrs_72Otnj-182" value="" style="shape=tableRow;horizontal=0;startSize=0;swimlaneHead=0;swimlaneBody=0;top=0;left=0;bottom=0;right=0;collapsible=0;dropTarget=0;fillColor=none;points=[[0,0.5],[1,0.5]];portConstraint=eastwest;strokeColor=#028090;fontSize=16;rounded=1;labelBackgroundColor=none;fontColor=#E4FDE1;sketch=1;curveFitting=1;jiggle=2;" vertex="1" parent="trcw09YQFbVrs_72Otnj-175">
          <mxGeometry y="90" width="180" height="30" as="geometry" />
        </mxCell>
        <mxCell id="trcw09YQFbVrs_72Otnj-183" value="" style="shape=partialRectangle;html=1;whiteSpace=wrap;connectable=0;fillColor=none;top=0;left=0;bottom=0;right=0;overflow=hidden;strokeColor=#028090;fontSize=16;rounded=1;labelBackgroundColor=none;fontColor=#E4FDE1;sketch=1;curveFitting=1;jiggle=2;" vertex="1" parent="trcw09YQFbVrs_72Otnj-182">
          <mxGeometry width="40" height="30" as="geometry">
            <mxRectangle width="40" height="30" as="alternateBounds" />
          </mxGeometry>
        </mxCell>
        <mxCell id="trcw09YQFbVrs_72Otnj-184" value="password" style="shape=partialRectangle;html=1;whiteSpace=wrap;connectable=0;fillColor=none;top=0;left=0;bottom=0;right=0;align=left;spacingLeft=6;overflow=hidden;strokeColor=#028090;fontSize=16;rounded=1;labelBackgroundColor=none;fontColor=#E4FDE1;sketch=1;curveFitting=1;jiggle=2;" vertex="1" parent="trcw09YQFbVrs_72Otnj-182">
          <mxGeometry x="40" width="140" height="30" as="geometry">
            <mxRectangle width="140" height="30" as="alternateBounds" />
          </mxGeometry>
        </mxCell>
        <mxCell id="trcw09YQFbVrs_72Otnj-185" value="links" style="shape=table;startSize=30;container=1;collapsible=0;childLayout=tableLayout;fixedRows=1;rowLines=0;fontStyle=0;strokeColor=#028090;fontSize=16;rounded=1;labelBackgroundColor=none;fillColor=#F45B69;fontColor=#E4FDE1;sketch=1;curveFitting=1;jiggle=2;" vertex="1" parent="1">
          <mxGeometry x="460" y="760" width="180" height="150" as="geometry" />
        </mxCell>
        <mxCell id="trcw09YQFbVrs_72Otnj-186" value="" style="shape=tableRow;horizontal=0;startSize=0;swimlaneHead=0;swimlaneBody=0;top=0;left=0;bottom=0;right=0;collapsible=0;dropTarget=0;fillColor=none;points=[[0,0.5],[1,0.5]];portConstraint=eastwest;strokeColor=#028090;fontSize=16;perimeterSpacing=4;rounded=1;labelBackgroundColor=none;fontColor=#E4FDE1;sketch=1;curveFitting=1;jiggle=2;" vertex="1" parent="trcw09YQFbVrs_72Otnj-185">
          <mxGeometry y="30" width="180" height="30" as="geometry" />
        </mxCell>
        <mxCell id="trcw09YQFbVrs_72Otnj-187" value="&lt;b&gt;PK&lt;/b&gt;" style="shape=partialRectangle;html=1;whiteSpace=wrap;connectable=0;fillColor=none;top=0;left=0;bottom=0;right=0;overflow=hidden;pointerEvents=1;strokeColor=#028090;fontSize=16;rounded=1;labelBackgroundColor=none;fontColor=#E4FDE1;sketch=1;curveFitting=1;jiggle=2;" vertex="1" parent="trcw09YQFbVrs_72Otnj-186">
          <mxGeometry width="40" height="30" as="geometry">
            <mxRectangle width="40" height="30" as="alternateBounds" />
          </mxGeometry>
        </mxCell>
        <mxCell id="trcw09YQFbVrs_72Otnj-188" value="&lt;b&gt;id&lt;/b&gt;" style="shape=partialRectangle;html=1;whiteSpace=wrap;connectable=0;fillColor=none;top=0;left=0;bottom=0;right=0;align=left;spacingLeft=6;overflow=hidden;strokeColor=#028090;fontSize=16;perimeterSpacing=4;rounded=1;labelBackgroundColor=none;fontColor=#E4FDE1;sketch=1;curveFitting=1;jiggle=2;" vertex="1" parent="trcw09YQFbVrs_72Otnj-186">
          <mxGeometry x="40" width="140" height="30" as="geometry">
            <mxRectangle width="140" height="30" as="alternateBounds" />
          </mxGeometry>
        </mxCell>
        <mxCell id="trcw09YQFbVrs_72Otnj-189" value="" style="shape=tableRow;horizontal=0;startSize=0;swimlaneHead=0;swimlaneBody=0;top=0;left=0;bottom=0;right=0;collapsible=0;dropTarget=0;fillColor=none;points=[[0,0.5],[1,0.5]];portConstraint=eastwest;strokeColor=#028090;fontSize=16;rounded=1;labelBackgroundColor=none;fontColor=#E4FDE1;sketch=1;curveFitting=1;jiggle=2;" vertex="1" parent="trcw09YQFbVrs_72Otnj-185">
          <mxGeometry y="60" width="180" height="30" as="geometry" />
        </mxCell>
        <mxCell id="trcw09YQFbVrs_72Otnj-190" value="" style="shape=partialRectangle;html=1;whiteSpace=wrap;connectable=0;fillColor=none;top=0;left=0;bottom=0;right=0;overflow=hidden;strokeColor=#028090;fontSize=16;rounded=1;labelBackgroundColor=none;fontColor=#E4FDE1;sketch=1;curveFitting=1;jiggle=2;" vertex="1" parent="trcw09YQFbVrs_72Otnj-189">
          <mxGeometry width="40" height="30" as="geometry">
            <mxRectangle width="40" height="30" as="alternateBounds" />
          </mxGeometry>
        </mxCell>
        <mxCell id="trcw09YQFbVrs_72Otnj-191" value="original" style="shape=partialRectangle;html=1;whiteSpace=wrap;connectable=0;fillColor=none;top=0;left=0;bottom=0;right=0;align=left;spacingLeft=6;overflow=hidden;strokeColor=#028090;fontSize=16;rounded=1;labelBackgroundColor=none;fontColor=#E4FDE1;sketch=1;curveFitting=1;jiggle=2;" vertex="1" parent="trcw09YQFbVrs_72Otnj-189">
          <mxGeometry x="40" width="140" height="30" as="geometry">
            <mxRectangle width="140" height="30" as="alternateBounds" />
          </mxGeometry>
        </mxCell>
        <mxCell id="trcw09YQFbVrs_72Otnj-192" value="" style="shape=tableRow;horizontal=0;startSize=0;swimlaneHead=0;swimlaneBody=0;top=0;left=0;bottom=0;right=0;collapsible=0;dropTarget=0;fillColor=none;points=[[0,0.5],[1,0.5]];portConstraint=eastwest;strokeColor=#028090;fontSize=16;rounded=1;labelBackgroundColor=none;fontColor=#E4FDE1;sketch=1;curveFitting=1;jiggle=2;" vertex="1" parent="trcw09YQFbVrs_72Otnj-185">
          <mxGeometry y="90" width="180" height="30" as="geometry" />
        </mxCell>
        <mxCell id="trcw09YQFbVrs_72Otnj-193" value="" style="shape=partialRectangle;html=1;whiteSpace=wrap;connectable=0;fillColor=none;top=0;left=0;bottom=0;right=0;overflow=hidden;strokeColor=#028090;fontSize=16;rounded=1;labelBackgroundColor=none;fontColor=#E4FDE1;sketch=1;curveFitting=1;jiggle=2;" vertex="1" parent="trcw09YQFbVrs_72Otnj-192">
          <mxGeometry width="40" height="30" as="geometry">
            <mxRectangle width="40" height="30" as="alternateBounds" />
          </mxGeometry>
        </mxCell>
        <mxCell id="trcw09YQFbVrs_72Otnj-194" value="generated" style="shape=partialRectangle;html=1;whiteSpace=wrap;connectable=0;fillColor=none;top=0;left=0;bottom=0;right=0;align=left;spacingLeft=6;overflow=hidden;strokeColor=#028090;fontSize=16;rounded=1;labelBackgroundColor=none;fontColor=#E4FDE1;sketch=1;curveFitting=1;jiggle=2;" vertex="1" parent="trcw09YQFbVrs_72Otnj-192">
          <mxGeometry x="40" width="140" height="30" as="geometry">
            <mxRectangle width="140" height="30" as="alternateBounds" />
          </mxGeometry>
        </mxCell>
        <mxCell id="trcw09YQFbVrs_72Otnj-195" value="" style="shape=tableRow;horizontal=0;startSize=0;swimlaneHead=0;swimlaneBody=0;top=0;left=0;bottom=0;right=0;collapsible=0;dropTarget=0;fillColor=none;points=[[0,0.5],[1,0.5]];portConstraint=eastwest;strokeColor=#028090;fontSize=16;rounded=1;labelBackgroundColor=none;fontColor=#E4FDE1;sketch=1;curveFitting=1;jiggle=2;" vertex="1" parent="trcw09YQFbVrs_72Otnj-185">
          <mxGeometry y="120" width="180" height="30" as="geometry" />
        </mxCell>
        <mxCell id="trcw09YQFbVrs_72Otnj-196" value="&lt;b&gt;FK&lt;/b&gt;" style="shape=partialRectangle;html=1;whiteSpace=wrap;connectable=0;fillColor=none;top=0;left=0;bottom=0;right=0;overflow=hidden;strokeColor=#028090;fontSize=16;rounded=1;labelBackgroundColor=none;fontColor=#E4FDE1;sketch=1;curveFitting=1;jiggle=2;" vertex="1" parent="trcw09YQFbVrs_72Otnj-195">
          <mxGeometry width="40" height="30" as="geometry">
            <mxRectangle width="40" height="30" as="alternateBounds" />
          </mxGeometry>
        </mxCell>
        <mxCell id="trcw09YQFbVrs_72Otnj-197" value="&lt;b&gt;id_list&lt;/b&gt;" style="shape=partialRectangle;html=1;whiteSpace=wrap;connectable=0;fillColor=none;top=0;left=0;bottom=0;right=0;align=left;spacingLeft=6;overflow=hidden;strokeColor=#028090;fontSize=16;rounded=1;labelBackgroundColor=none;fontColor=#E4FDE1;sketch=1;curveFitting=1;jiggle=2;" vertex="1" parent="trcw09YQFbVrs_72Otnj-195">
          <mxGeometry x="40" width="140" height="30" as="geometry">
            <mxRectangle width="140" height="30" as="alternateBounds" />
          </mxGeometry>
        </mxCell>
        <mxCell id="trcw09YQFbVrs_72Otnj-198" style="edgeStyle=orthogonalEdgeStyle;rounded=1;orthogonalLoop=1;jettySize=auto;html=1;exitX=0;exitY=0.5;exitDx=0;exitDy=0;entryX=0.98;entryY=0.505;entryDx=0;entryDy=0;startArrow=ERmany;startFill=0;endArrow=none;endFill=0;entryPerimeter=0;labelBackgroundColor=none;strokeColor=#028090;fontColor=default;sketch=1;curveFitting=1;jiggle=2;" edge="1" parent="1" source="trcw09YQFbVrs_72Otnj-236" target="trcw09YQFbVrs_72Otnj-176">
          <mxGeometry relative="1" as="geometry" />
        </mxCell>
        <mxCell id="trcw09YQFbVrs_72Otnj-209" style="edgeStyle=orthogonalEdgeStyle;rounded=1;orthogonalLoop=1;jettySize=auto;html=1;exitX=0.021;exitY=0.501;exitDx=0;exitDy=0;entryX=1;entryY=0.25;entryDx=0;entryDy=0;endArrow=none;endFill=0;exitPerimeter=0;labelBackgroundColor=none;strokeColor=#028090;fontColor=default;sketch=1;curveFitting=1;jiggle=2;" edge="1" parent="1" source="trcw09YQFbVrs_72Otnj-214" target="trcw09YQFbVrs_72Otnj-185">
          <mxGeometry relative="1" as="geometry">
            <mxPoint x="570.136" y="829.9240000000002" as="sourcePoint" />
          </mxGeometry>
        </mxCell>
        <mxCell id="trcw09YQFbVrs_72Otnj-213" value="states" style="shape=table;startSize=30;container=1;collapsible=0;childLayout=tableLayout;fixedRows=1;rowLines=0;fontStyle=0;strokeColor=#028090;fontSize=16;rounded=1;labelBackgroundColor=none;fillColor=#F45B69;fontColor=#E4FDE1;sketch=1;curveFitting=1;jiggle=2;" vertex="1" parent="1">
          <mxGeometry x="690" y="860" width="180" height="210" as="geometry" />
        </mxCell>
        <mxCell id="trcw09YQFbVrs_72Otnj-214" value="" style="shape=tableRow;horizontal=0;startSize=0;swimlaneHead=0;swimlaneBody=0;top=0;left=0;bottom=0;right=0;collapsible=0;dropTarget=0;fillColor=none;points=[[0,0.5],[1,0.5]];portConstraint=eastwest;strokeColor=#028090;fontSize=16;perimeterSpacing=4;rounded=1;labelBackgroundColor=none;fontColor=#E4FDE1;sketch=1;curveFitting=1;jiggle=2;" vertex="1" parent="trcw09YQFbVrs_72Otnj-213">
          <mxGeometry y="30" width="180" height="30" as="geometry" />
        </mxCell>
        <mxCell id="trcw09YQFbVrs_72Otnj-215" value="&lt;b&gt;FK&lt;/b&gt;" style="shape=partialRectangle;html=1;whiteSpace=wrap;connectable=0;fillColor=none;top=0;left=0;bottom=0;right=0;overflow=hidden;pointerEvents=1;strokeColor=#028090;fontSize=16;rounded=1;labelBackgroundColor=none;fontColor=#E4FDE1;sketch=1;curveFitting=1;jiggle=2;" vertex="1" parent="trcw09YQFbVrs_72Otnj-214">
          <mxGeometry width="40" height="30" as="geometry">
            <mxRectangle width="40" height="30" as="alternateBounds" />
          </mxGeometry>
        </mxCell>
        <mxCell id="trcw09YQFbVrs_72Otnj-216" value="&lt;b&gt;id&lt;/b&gt;" style="shape=partialRectangle;html=1;whiteSpace=wrap;connectable=0;fillColor=none;top=0;left=0;bottom=0;right=0;align=left;spacingLeft=6;overflow=hidden;strokeColor=#028090;fontSize=16;perimeterSpacing=4;rounded=1;labelBackgroundColor=none;fontColor=#E4FDE1;sketch=1;curveFitting=1;jiggle=2;" vertex="1" parent="trcw09YQFbVrs_72Otnj-214">
          <mxGeometry x="40" width="140" height="30" as="geometry">
            <mxRectangle width="140" height="30" as="alternateBounds" />
          </mxGeometry>
        </mxCell>
        <mxCell id="trcw09YQFbVrs_72Otnj-217" value="" style="shape=tableRow;horizontal=0;startSize=0;swimlaneHead=0;swimlaneBody=0;top=0;left=0;bottom=0;right=0;collapsible=0;dropTarget=0;fillColor=none;points=[[0,0.5],[1,0.5]];portConstraint=eastwest;strokeColor=#028090;fontSize=16;rounded=1;labelBackgroundColor=none;fontColor=#E4FDE1;sketch=1;curveFitting=1;jiggle=2;" vertex="1" parent="trcw09YQFbVrs_72Otnj-213">
          <mxGeometry y="60" width="180" height="30" as="geometry" />
        </mxCell>
        <mxCell id="trcw09YQFbVrs_72Otnj-218" value="" style="shape=partialRectangle;html=1;whiteSpace=wrap;connectable=0;fillColor=none;top=0;left=0;bottom=0;right=0;overflow=hidden;strokeColor=#028090;fontSize=16;rounded=1;labelBackgroundColor=none;fontColor=#E4FDE1;sketch=1;curveFitting=1;jiggle=2;" vertex="1" parent="trcw09YQFbVrs_72Otnj-217">
          <mxGeometry width="40" height="30" as="geometry">
            <mxRectangle width="40" height="30" as="alternateBounds" />
          </mxGeometry>
        </mxCell>
        <mxCell id="trcw09YQFbVrs_72Otnj-219" value="title" style="shape=partialRectangle;html=1;whiteSpace=wrap;connectable=0;fillColor=none;top=0;left=0;bottom=0;right=0;align=left;spacingLeft=6;overflow=hidden;strokeColor=#028090;fontSize=16;rounded=1;labelBackgroundColor=none;fontColor=#E4FDE1;sketch=1;curveFitting=1;jiggle=2;" vertex="1" parent="trcw09YQFbVrs_72Otnj-217">
          <mxGeometry x="40" width="140" height="30" as="geometry">
            <mxRectangle width="140" height="30" as="alternateBounds" />
          </mxGeometry>
        </mxCell>
        <mxCell id="trcw09YQFbVrs_72Otnj-220" value="" style="shape=tableRow;horizontal=0;startSize=0;swimlaneHead=0;swimlaneBody=0;top=0;left=0;bottom=0;right=0;collapsible=0;dropTarget=0;fillColor=none;points=[[0,0.5],[1,0.5]];portConstraint=eastwest;strokeColor=#028090;fontSize=16;rounded=1;labelBackgroundColor=none;fontColor=#E4FDE1;sketch=1;curveFitting=1;jiggle=2;" vertex="1" parent="trcw09YQFbVrs_72Otnj-213">
          <mxGeometry y="90" width="180" height="30" as="geometry" />
        </mxCell>
        <mxCell id="trcw09YQFbVrs_72Otnj-221" value="" style="shape=partialRectangle;html=1;whiteSpace=wrap;connectable=0;fillColor=none;top=0;left=0;bottom=0;right=0;overflow=hidden;strokeColor=#028090;fontSize=16;rounded=1;labelBackgroundColor=none;fontColor=#E4FDE1;sketch=1;curveFitting=1;jiggle=2;" vertex="1" parent="trcw09YQFbVrs_72Otnj-220">
          <mxGeometry width="40" height="30" as="geometry">
            <mxRectangle width="40" height="30" as="alternateBounds" />
          </mxGeometry>
        </mxCell>
        <mxCell id="trcw09YQFbVrs_72Otnj-222" value="date_delete" style="shape=partialRectangle;html=1;whiteSpace=wrap;connectable=0;fillColor=none;top=0;left=0;bottom=0;right=0;align=left;spacingLeft=6;overflow=hidden;strokeColor=#028090;fontSize=16;rounded=1;labelBackgroundColor=none;fontColor=#E4FDE1;sketch=1;curveFitting=1;jiggle=2;" vertex="1" parent="trcw09YQFbVrs_72Otnj-220">
          <mxGeometry x="40" width="140" height="30" as="geometry">
            <mxRectangle width="140" height="30" as="alternateBounds" />
          </mxGeometry>
        </mxCell>
        <mxCell id="trcw09YQFbVrs_72Otnj-223" value="" style="shape=tableRow;horizontal=0;startSize=0;swimlaneHead=0;swimlaneBody=0;top=0;left=0;bottom=0;right=0;collapsible=0;dropTarget=0;fillColor=none;points=[[0,0.5],[1,0.5]];portConstraint=eastwest;strokeColor=#028090;fontSize=16;rounded=1;labelBackgroundColor=none;fontColor=#E4FDE1;sketch=1;curveFitting=1;jiggle=2;" vertex="1" parent="trcw09YQFbVrs_72Otnj-213">
          <mxGeometry y="120" width="180" height="30" as="geometry" />
        </mxCell>
        <mxCell id="trcw09YQFbVrs_72Otnj-224" value="" style="shape=partialRectangle;html=1;whiteSpace=wrap;connectable=0;fillColor=none;top=0;left=0;bottom=0;right=0;overflow=hidden;strokeColor=#028090;fontSize=16;rounded=1;labelBackgroundColor=none;fontColor=#E4FDE1;sketch=1;curveFitting=1;jiggle=2;" vertex="1" parent="trcw09YQFbVrs_72Otnj-223">
          <mxGeometry width="40" height="30" as="geometry">
            <mxRectangle width="40" height="30" as="alternateBounds" />
          </mxGeometry>
        </mxCell>
        <mxCell id="trcw09YQFbVrs_72Otnj-225" value="counter" style="shape=partialRectangle;html=1;whiteSpace=wrap;connectable=0;fillColor=none;top=0;left=0;bottom=0;right=0;align=left;spacingLeft=6;overflow=hidden;strokeColor=#028090;fontSize=16;rounded=1;labelBackgroundColor=none;fontColor=#E4FDE1;sketch=1;curveFitting=1;jiggle=2;" vertex="1" parent="trcw09YQFbVrs_72Otnj-223">
          <mxGeometry x="40" width="140" height="30" as="geometry">
            <mxRectangle width="140" height="30" as="alternateBounds" />
          </mxGeometry>
        </mxCell>
        <mxCell id="trcw09YQFbVrs_72Otnj-259" value="" style="shape=tableRow;horizontal=0;startSize=0;swimlaneHead=0;swimlaneBody=0;top=0;left=0;bottom=0;right=0;collapsible=0;dropTarget=0;fillColor=none;points=[[0,0.5],[1,0.5]];portConstraint=eastwest;strokeColor=#028090;fontSize=16;rounded=1;labelBackgroundColor=none;fontColor=#E4FDE1;sketch=1;curveFitting=1;jiggle=2;" vertex="1" parent="trcw09YQFbVrs_72Otnj-213">
          <mxGeometry y="150" width="180" height="30" as="geometry" />
        </mxCell>
        <mxCell id="trcw09YQFbVrs_72Otnj-260" value="" style="shape=partialRectangle;html=1;whiteSpace=wrap;connectable=0;fillColor=none;top=0;left=0;bottom=0;right=0;overflow=hidden;strokeColor=#028090;fontSize=16;rounded=1;labelBackgroundColor=none;fontColor=#E4FDE1;sketch=1;curveFitting=1;jiggle=2;" vertex="1" parent="trcw09YQFbVrs_72Otnj-259">
          <mxGeometry width="40" height="30" as="geometry">
            <mxRectangle width="40" height="30" as="alternateBounds" />
          </mxGeometry>
        </mxCell>
        <mxCell id="trcw09YQFbVrs_72Otnj-261" value="status_original" style="shape=partialRectangle;html=1;whiteSpace=wrap;connectable=0;fillColor=none;top=0;left=0;bottom=0;right=0;align=left;spacingLeft=6;overflow=hidden;strokeColor=#028090;fontSize=16;rounded=1;labelBackgroundColor=none;fontColor=#E4FDE1;sketch=1;curveFitting=1;jiggle=2;" vertex="1" parent="trcw09YQFbVrs_72Otnj-259">
          <mxGeometry x="40" width="140" height="30" as="geometry">
            <mxRectangle width="140" height="30" as="alternateBounds" />
          </mxGeometry>
        </mxCell>
        <mxCell id="trcw09YQFbVrs_72Otnj-262" value="" style="shape=tableRow;horizontal=0;startSize=0;swimlaneHead=0;swimlaneBody=0;top=0;left=0;bottom=0;right=0;collapsible=0;dropTarget=0;fillColor=none;points=[[0,0.5],[1,0.5]];portConstraint=eastwest;strokeColor=#028090;fontSize=16;rounded=1;labelBackgroundColor=none;fontColor=#E4FDE1;sketch=1;curveFitting=1;jiggle=2;" vertex="1" parent="trcw09YQFbVrs_72Otnj-213">
          <mxGeometry y="180" width="180" height="30" as="geometry" />
        </mxCell>
        <mxCell id="trcw09YQFbVrs_72Otnj-263" value="" style="shape=partialRectangle;html=1;whiteSpace=wrap;connectable=0;fillColor=none;top=0;left=0;bottom=0;right=0;overflow=hidden;strokeColor=#028090;fontSize=16;rounded=1;labelBackgroundColor=none;fontColor=#E4FDE1;sketch=1;curveFitting=1;jiggle=2;" vertex="1" parent="trcw09YQFbVrs_72Otnj-262">
          <mxGeometry width="40" height="30" as="geometry">
            <mxRectangle width="40" height="30" as="alternateBounds" />
          </mxGeometry>
        </mxCell>
        <mxCell id="trcw09YQFbVrs_72Otnj-264" value="status_generated" style="shape=partialRectangle;html=1;whiteSpace=wrap;connectable=0;fillColor=none;top=0;left=0;bottom=0;right=0;align=left;spacingLeft=6;overflow=hidden;strokeColor=#028090;fontSize=16;rounded=1;labelBackgroundColor=none;fontColor=#E4FDE1;sketch=1;curveFitting=1;jiggle=2;" vertex="1" parent="trcw09YQFbVrs_72Otnj-262">
          <mxGeometry x="40" width="140" height="30" as="geometry">
            <mxRectangle width="140" height="30" as="alternateBounds" />
          </mxGeometry>
        </mxCell>
        <mxCell id="trcw09YQFbVrs_72Otnj-226" value="lists" style="shape=table;startSize=30;container=1;collapsible=0;childLayout=tableLayout;fixedRows=1;rowLines=0;fontStyle=0;strokeColor=#028090;fontSize=16;rounded=1;labelBackgroundColor=none;fillColor=#F45B69;fontColor=#E4FDE1;sketch=1;curveFitting=1;jiggle=2;" vertex="1" parent="1">
          <mxGeometry x="240" y="790" width="180" height="120" as="geometry" />
        </mxCell>
        <mxCell id="trcw09YQFbVrs_72Otnj-227" value="" style="shape=tableRow;horizontal=0;startSize=0;swimlaneHead=0;swimlaneBody=0;top=0;left=0;bottom=0;right=0;collapsible=0;dropTarget=0;fillColor=none;points=[[0,0.5],[1,0.5]];portConstraint=eastwest;strokeColor=#028090;fontSize=16;perimeterSpacing=4;rounded=1;labelBackgroundColor=none;fontColor=#E4FDE1;sketch=1;curveFitting=1;jiggle=2;" vertex="1" parent="trcw09YQFbVrs_72Otnj-226">
          <mxGeometry y="30" width="180" height="30" as="geometry" />
        </mxCell>
        <mxCell id="trcw09YQFbVrs_72Otnj-228" value="&lt;b&gt;PK&lt;/b&gt;" style="shape=partialRectangle;html=1;whiteSpace=wrap;connectable=0;fillColor=none;top=0;left=0;bottom=0;right=0;overflow=hidden;pointerEvents=1;strokeColor=#028090;fontSize=16;rounded=1;labelBackgroundColor=none;fontColor=#E4FDE1;sketch=1;curveFitting=1;jiggle=2;" vertex="1" parent="trcw09YQFbVrs_72Otnj-227">
          <mxGeometry width="40" height="30" as="geometry">
            <mxRectangle width="40" height="30" as="alternateBounds" />
          </mxGeometry>
        </mxCell>
        <mxCell id="trcw09YQFbVrs_72Otnj-229" value="&lt;b&gt;id&lt;/b&gt;" style="shape=partialRectangle;html=1;whiteSpace=wrap;connectable=0;fillColor=none;top=0;left=0;bottom=0;right=0;align=left;spacingLeft=6;overflow=hidden;strokeColor=#028090;fontSize=16;perimeterSpacing=4;rounded=1;labelBackgroundColor=none;fontColor=#E4FDE1;sketch=1;curveFitting=1;jiggle=2;" vertex="1" parent="trcw09YQFbVrs_72Otnj-227">
          <mxGeometry x="40" width="140" height="30" as="geometry">
            <mxRectangle width="140" height="30" as="alternateBounds" />
          </mxGeometry>
        </mxCell>
        <mxCell id="trcw09YQFbVrs_72Otnj-230" value="" style="shape=tableRow;horizontal=0;startSize=0;swimlaneHead=0;swimlaneBody=0;top=0;left=0;bottom=0;right=0;collapsible=0;dropTarget=0;fillColor=none;points=[[0,0.5],[1,0.5]];portConstraint=eastwest;strokeColor=#028090;fontSize=16;rounded=1;labelBackgroundColor=none;fontColor=#E4FDE1;sketch=1;curveFitting=1;jiggle=2;" vertex="1" parent="trcw09YQFbVrs_72Otnj-226">
          <mxGeometry y="60" width="180" height="30" as="geometry" />
        </mxCell>
        <mxCell id="trcw09YQFbVrs_72Otnj-231" value="" style="shape=partialRectangle;html=1;whiteSpace=wrap;connectable=0;fillColor=none;top=0;left=0;bottom=0;right=0;overflow=hidden;strokeColor=#028090;fontSize=16;rounded=1;labelBackgroundColor=none;fontColor=#E4FDE1;sketch=1;curveFitting=1;jiggle=2;" vertex="1" parent="trcw09YQFbVrs_72Otnj-230">
          <mxGeometry width="40" height="30" as="geometry">
            <mxRectangle width="40" height="30" as="alternateBounds" />
          </mxGeometry>
        </mxCell>
        <mxCell id="trcw09YQFbVrs_72Otnj-232" value="title" style="shape=partialRectangle;html=1;whiteSpace=wrap;connectable=0;fillColor=none;top=0;left=0;bottom=0;right=0;align=left;spacingLeft=6;overflow=hidden;strokeColor=#028090;fontSize=16;rounded=1;labelBackgroundColor=none;fontColor=#E4FDE1;sketch=1;curveFitting=1;jiggle=2;" vertex="1" parent="trcw09YQFbVrs_72Otnj-230">
          <mxGeometry x="40" width="140" height="30" as="geometry">
            <mxRectangle width="140" height="30" as="alternateBounds" />
          </mxGeometry>
        </mxCell>
        <mxCell id="trcw09YQFbVrs_72Otnj-236" value="" style="shape=tableRow;horizontal=0;startSize=0;swimlaneHead=0;swimlaneBody=0;top=0;left=0;bottom=0;right=0;collapsible=0;dropTarget=0;fillColor=none;points=[[0,0.5],[1,0.5]];portConstraint=eastwest;strokeColor=#028090;fontSize=16;rounded=1;labelBackgroundColor=none;fontColor=#E4FDE1;sketch=1;curveFitting=1;jiggle=2;" vertex="1" parent="trcw09YQFbVrs_72Otnj-226">
          <mxGeometry y="90" width="180" height="30" as="geometry" />
        </mxCell>
        <mxCell id="trcw09YQFbVrs_72Otnj-237" value="&lt;b&gt;FK&lt;/b&gt;" style="shape=partialRectangle;html=1;whiteSpace=wrap;connectable=0;fillColor=none;top=0;left=0;bottom=0;right=0;overflow=hidden;strokeColor=#028090;fontSize=16;rounded=1;labelBackgroundColor=none;fontColor=#E4FDE1;sketch=1;curveFitting=1;jiggle=2;" vertex="1" parent="trcw09YQFbVrs_72Otnj-236">
          <mxGeometry width="40" height="30" as="geometry">
            <mxRectangle width="40" height="30" as="alternateBounds" />
          </mxGeometry>
        </mxCell>
        <mxCell id="trcw09YQFbVrs_72Otnj-238" value="&lt;b&gt;id_user&lt;/b&gt;" style="shape=partialRectangle;html=1;whiteSpace=wrap;connectable=0;fillColor=none;top=0;left=0;bottom=0;right=0;align=left;spacingLeft=6;overflow=hidden;strokeColor=#028090;fontSize=16;rounded=1;labelBackgroundColor=none;fontColor=#E4FDE1;sketch=1;curveFitting=1;jiggle=2;" vertex="1" parent="trcw09YQFbVrs_72Otnj-236">
          <mxGeometry x="40" width="140" height="30" as="geometry">
            <mxRectangle width="140" height="30" as="alternateBounds" />
          </mxGeometry>
        </mxCell>
        <mxCell id="trcw09YQFbVrs_72Otnj-240" style="edgeStyle=orthogonalEdgeStyle;rounded=1;orthogonalLoop=1;jettySize=auto;html=1;exitX=0;exitY=0.5;exitDx=0;exitDy=0;entryX=0.979;entryY=0.488;entryDx=0;entryDy=0;startArrow=ERmany;startFill=0;endArrow=none;endFill=0;labelBackgroundColor=none;strokeColor=#028090;fontColor=default;entryPerimeter=0;sketch=1;curveFitting=1;jiggle=2;" edge="1" parent="1" source="trcw09YQFbVrs_72Otnj-195" target="trcw09YQFbVrs_72Otnj-227">
          <mxGeometry relative="1" as="geometry">
            <mxPoint x="470" y="909.51" as="sourcePoint" />
            <mxPoint x="430" y="849.51" as="targetPoint" />
          </mxGeometry>
        </mxCell>
        <mxCell id="trcw09YQFbVrs_72Otnj-278" value="&lt;div style=&quot;font-size: 23px;&quot;&gt;V3 add lists&lt;br&gt;&lt;/div&gt;" style="text;html=1;strokeColor=none;fillColor=none;align=left;verticalAlign=top;whiteSpace=wrap;rounded=1;fontSize=23;labelBackgroundColor=none;fontColor=#E4FDE1;sketch=1;curveFitting=1;jiggle=2;" vertex="1" parent="1">
          <mxGeometry x="10" y="720" width="180" height="40" as="geometry" />
        </mxCell>
        <mxCell id="trcw09YQFbVrs_72Otnj-485" value="&lt;div style=&quot;font-size: 23px;&quot;&gt;V4 add subscription&lt;/div&gt;" style="text;html=1;strokeColor=none;fillColor=none;align=left;verticalAlign=top;whiteSpace=wrap;rounded=1;fontSize=23;labelBackgroundColor=none;fontColor=#E4FDE1;sketch=1;curveFitting=1;jiggle=2;" vertex="1" parent="1">
          <mxGeometry y="1140" width="240" height="40" as="geometry" />
        </mxCell>
        <mxCell id="trcw09YQFbVrs_72Otnj-486" value="users" style="shape=table;startSize=30;container=1;collapsible=0;childLayout=tableLayout;fixedRows=1;rowLines=0;fontStyle=0;strokeColor=#028090;fontSize=16;rounded=1;labelBackgroundColor=none;fillColor=#F45B69;fontColor=#E4FDE1;sketch=1;curveFitting=1;jiggle=2;" vertex="1" parent="1">
          <mxGeometry x="10" y="1210" width="180" height="150" as="geometry" />
        </mxCell>
        <mxCell id="trcw09YQFbVrs_72Otnj-487" value="" style="shape=tableRow;horizontal=0;startSize=0;swimlaneHead=0;swimlaneBody=0;top=0;left=0;bottom=0;right=0;collapsible=0;dropTarget=0;fillColor=none;points=[[0,0.5],[1,0.5]];portConstraint=eastwest;strokeColor=#028090;fontSize=16;perimeterSpacing=4;rounded=1;labelBackgroundColor=none;fontColor=#E4FDE1;sketch=1;curveFitting=1;jiggle=2;" vertex="1" parent="trcw09YQFbVrs_72Otnj-486">
          <mxGeometry y="30" width="180" height="30" as="geometry" />
        </mxCell>
        <mxCell id="trcw09YQFbVrs_72Otnj-488" value="&lt;b&gt;PK&lt;/b&gt;" style="shape=partialRectangle;html=1;whiteSpace=wrap;connectable=0;fillColor=none;top=0;left=0;bottom=0;right=0;overflow=hidden;pointerEvents=1;strokeColor=#028090;fontSize=16;rounded=1;labelBackgroundColor=none;fontColor=#E4FDE1;sketch=1;curveFitting=1;jiggle=2;" vertex="1" parent="trcw09YQFbVrs_72Otnj-487">
          <mxGeometry width="40" height="30" as="geometry">
            <mxRectangle width="40" height="30" as="alternateBounds" />
          </mxGeometry>
        </mxCell>
        <mxCell id="trcw09YQFbVrs_72Otnj-489" value="&lt;b&gt;id&lt;/b&gt;" style="shape=partialRectangle;html=1;whiteSpace=wrap;connectable=0;fillColor=none;top=0;left=0;bottom=0;right=0;align=left;spacingLeft=6;overflow=hidden;strokeColor=#028090;fontSize=16;perimeterSpacing=4;rounded=1;labelBackgroundColor=none;fontColor=#E4FDE1;sketch=1;curveFitting=1;jiggle=2;" vertex="1" parent="trcw09YQFbVrs_72Otnj-487">
          <mxGeometry x="40" width="140" height="30" as="geometry">
            <mxRectangle width="140" height="30" as="alternateBounds" />
          </mxGeometry>
        </mxCell>
        <mxCell id="trcw09YQFbVrs_72Otnj-490" value="" style="shape=tableRow;horizontal=0;startSize=0;swimlaneHead=0;swimlaneBody=0;top=0;left=0;bottom=0;right=0;collapsible=0;dropTarget=0;fillColor=none;points=[[0,0.5],[1,0.5]];portConstraint=eastwest;strokeColor=#028090;fontSize=16;rounded=1;labelBackgroundColor=none;fontColor=#E4FDE1;sketch=1;curveFitting=1;jiggle=2;" vertex="1" parent="trcw09YQFbVrs_72Otnj-486">
          <mxGeometry y="60" width="180" height="30" as="geometry" />
        </mxCell>
        <mxCell id="trcw09YQFbVrs_72Otnj-491" value="" style="shape=partialRectangle;html=1;whiteSpace=wrap;connectable=0;fillColor=none;top=0;left=0;bottom=0;right=0;overflow=hidden;strokeColor=#028090;fontSize=16;rounded=1;labelBackgroundColor=none;fontColor=#E4FDE1;sketch=1;curveFitting=1;jiggle=2;" vertex="1" parent="trcw09YQFbVrs_72Otnj-490">
          <mxGeometry width="40" height="30" as="geometry">
            <mxRectangle width="40" height="30" as="alternateBounds" />
          </mxGeometry>
        </mxCell>
        <mxCell id="trcw09YQFbVrs_72Otnj-492" value="login" style="shape=partialRectangle;html=1;whiteSpace=wrap;connectable=0;fillColor=none;top=0;left=0;bottom=0;right=0;align=left;spacingLeft=6;overflow=hidden;strokeColor=#028090;fontSize=16;rounded=1;labelBackgroundColor=none;fontColor=#E4FDE1;sketch=1;curveFitting=1;jiggle=2;" vertex="1" parent="trcw09YQFbVrs_72Otnj-490">
          <mxGeometry x="40" width="140" height="30" as="geometry">
            <mxRectangle width="140" height="30" as="alternateBounds" />
          </mxGeometry>
        </mxCell>
        <mxCell id="trcw09YQFbVrs_72Otnj-493" value="" style="shape=tableRow;horizontal=0;startSize=0;swimlaneHead=0;swimlaneBody=0;top=0;left=0;bottom=0;right=0;collapsible=0;dropTarget=0;fillColor=none;points=[[0,0.5],[1,0.5]];portConstraint=eastwest;strokeColor=#028090;fontSize=16;rounded=1;labelBackgroundColor=none;fontColor=#E4FDE1;sketch=1;curveFitting=1;jiggle=2;" vertex="1" parent="trcw09YQFbVrs_72Otnj-486">
          <mxGeometry y="90" width="180" height="30" as="geometry" />
        </mxCell>
        <mxCell id="trcw09YQFbVrs_72Otnj-494" value="" style="shape=partialRectangle;html=1;whiteSpace=wrap;connectable=0;fillColor=none;top=0;left=0;bottom=0;right=0;overflow=hidden;strokeColor=#028090;fontSize=16;rounded=1;labelBackgroundColor=none;fontColor=#E4FDE1;sketch=1;curveFitting=1;jiggle=2;" vertex="1" parent="trcw09YQFbVrs_72Otnj-493">
          <mxGeometry width="40" height="30" as="geometry">
            <mxRectangle width="40" height="30" as="alternateBounds" />
          </mxGeometry>
        </mxCell>
        <mxCell id="trcw09YQFbVrs_72Otnj-495" value="password" style="shape=partialRectangle;html=1;whiteSpace=wrap;connectable=0;fillColor=none;top=0;left=0;bottom=0;right=0;align=left;spacingLeft=6;overflow=hidden;strokeColor=#028090;fontSize=16;rounded=1;labelBackgroundColor=none;fontColor=#E4FDE1;sketch=1;curveFitting=1;jiggle=2;" vertex="1" parent="trcw09YQFbVrs_72Otnj-493">
          <mxGeometry x="40" width="140" height="30" as="geometry">
            <mxRectangle width="140" height="30" as="alternateBounds" />
          </mxGeometry>
        </mxCell>
        <mxCell id="trcw09YQFbVrs_72Otnj-630" value="" style="shape=tableRow;horizontal=0;startSize=0;swimlaneHead=0;swimlaneBody=0;top=0;left=0;bottom=0;right=0;collapsible=0;dropTarget=0;fillColor=none;points=[[0,0.5],[1,0.5]];portConstraint=eastwest;strokeColor=#028090;fontSize=16;rounded=1;labelBackgroundColor=none;fontColor=#E4FDE1;sketch=1;curveFitting=1;jiggle=2;" vertex="1" parent="trcw09YQFbVrs_72Otnj-486">
          <mxGeometry y="120" width="180" height="30" as="geometry" />
        </mxCell>
        <mxCell id="trcw09YQFbVrs_72Otnj-631" value="&lt;b&gt;FK&lt;/b&gt;" style="shape=partialRectangle;html=1;whiteSpace=wrap;connectable=0;fillColor=none;top=0;left=0;bottom=0;right=0;overflow=hidden;strokeColor=#028090;fontSize=16;rounded=1;labelBackgroundColor=none;fontColor=#E4FDE1;sketch=1;curveFitting=1;jiggle=2;" vertex="1" parent="trcw09YQFbVrs_72Otnj-630">
          <mxGeometry width="40" height="30" as="geometry">
            <mxRectangle width="40" height="30" as="alternateBounds" />
          </mxGeometry>
        </mxCell>
        <mxCell id="trcw09YQFbVrs_72Otnj-632" value="&lt;b&gt;subscription&lt;/b&gt;" style="shape=partialRectangle;html=1;whiteSpace=wrap;connectable=0;fillColor=none;top=0;left=0;bottom=0;right=0;align=left;spacingLeft=6;overflow=hidden;strokeColor=#028090;fontSize=16;rounded=1;labelBackgroundColor=none;fontColor=#E4FDE1;sketch=1;curveFitting=1;jiggle=2;" vertex="1" parent="trcw09YQFbVrs_72Otnj-630">
          <mxGeometry x="40" width="140" height="30" as="geometry">
            <mxRectangle width="140" height="30" as="alternateBounds" />
          </mxGeometry>
        </mxCell>
        <mxCell id="trcw09YQFbVrs_72Otnj-496" value="links" style="shape=table;startSize=30;container=1;collapsible=0;childLayout=tableLayout;fixedRows=1;rowLines=0;fontStyle=0;strokeColor=#028090;fontSize=16;rounded=1;labelBackgroundColor=none;fillColor=#F45B69;fontColor=#E4FDE1;sketch=1;curveFitting=1;jiggle=2;" vertex="1" parent="1">
          <mxGeometry x="450" y="1180" width="180" height="150" as="geometry" />
        </mxCell>
        <mxCell id="trcw09YQFbVrs_72Otnj-497" value="" style="shape=tableRow;horizontal=0;startSize=0;swimlaneHead=0;swimlaneBody=0;top=0;left=0;bottom=0;right=0;collapsible=0;dropTarget=0;fillColor=none;points=[[0,0.5],[1,0.5]];portConstraint=eastwest;strokeColor=#028090;fontSize=16;perimeterSpacing=4;rounded=1;labelBackgroundColor=none;fontColor=#E4FDE1;sketch=1;curveFitting=1;jiggle=2;" vertex="1" parent="trcw09YQFbVrs_72Otnj-496">
          <mxGeometry y="30" width="180" height="30" as="geometry" />
        </mxCell>
        <mxCell id="trcw09YQFbVrs_72Otnj-498" value="&lt;b&gt;PK&lt;/b&gt;" style="shape=partialRectangle;html=1;whiteSpace=wrap;connectable=0;fillColor=none;top=0;left=0;bottom=0;right=0;overflow=hidden;pointerEvents=1;strokeColor=#028090;fontSize=16;rounded=1;labelBackgroundColor=none;fontColor=#E4FDE1;sketch=1;curveFitting=1;jiggle=2;" vertex="1" parent="trcw09YQFbVrs_72Otnj-497">
          <mxGeometry width="40" height="30" as="geometry">
            <mxRectangle width="40" height="30" as="alternateBounds" />
          </mxGeometry>
        </mxCell>
        <mxCell id="trcw09YQFbVrs_72Otnj-499" value="&lt;b&gt;id&lt;/b&gt;" style="shape=partialRectangle;html=1;whiteSpace=wrap;connectable=0;fillColor=none;top=0;left=0;bottom=0;right=0;align=left;spacingLeft=6;overflow=hidden;strokeColor=#028090;fontSize=16;perimeterSpacing=4;rounded=1;labelBackgroundColor=none;fontColor=#E4FDE1;sketch=1;curveFitting=1;jiggle=2;" vertex="1" parent="trcw09YQFbVrs_72Otnj-497">
          <mxGeometry x="40" width="140" height="30" as="geometry">
            <mxRectangle width="140" height="30" as="alternateBounds" />
          </mxGeometry>
        </mxCell>
        <mxCell id="trcw09YQFbVrs_72Otnj-500" value="" style="shape=tableRow;horizontal=0;startSize=0;swimlaneHead=0;swimlaneBody=0;top=0;left=0;bottom=0;right=0;collapsible=0;dropTarget=0;fillColor=none;points=[[0,0.5],[1,0.5]];portConstraint=eastwest;strokeColor=#028090;fontSize=16;rounded=1;labelBackgroundColor=none;fontColor=#E4FDE1;sketch=1;curveFitting=1;jiggle=2;" vertex="1" parent="trcw09YQFbVrs_72Otnj-496">
          <mxGeometry y="60" width="180" height="30" as="geometry" />
        </mxCell>
        <mxCell id="trcw09YQFbVrs_72Otnj-501" value="" style="shape=partialRectangle;html=1;whiteSpace=wrap;connectable=0;fillColor=none;top=0;left=0;bottom=0;right=0;overflow=hidden;strokeColor=#028090;fontSize=16;rounded=1;labelBackgroundColor=none;fontColor=#E4FDE1;sketch=1;curveFitting=1;jiggle=2;" vertex="1" parent="trcw09YQFbVrs_72Otnj-500">
          <mxGeometry width="40" height="30" as="geometry">
            <mxRectangle width="40" height="30" as="alternateBounds" />
          </mxGeometry>
        </mxCell>
        <mxCell id="trcw09YQFbVrs_72Otnj-502" value="original" style="shape=partialRectangle;html=1;whiteSpace=wrap;connectable=0;fillColor=none;top=0;left=0;bottom=0;right=0;align=left;spacingLeft=6;overflow=hidden;strokeColor=#028090;fontSize=16;rounded=1;labelBackgroundColor=none;fontColor=#E4FDE1;sketch=1;curveFitting=1;jiggle=2;" vertex="1" parent="trcw09YQFbVrs_72Otnj-500">
          <mxGeometry x="40" width="140" height="30" as="geometry">
            <mxRectangle width="140" height="30" as="alternateBounds" />
          </mxGeometry>
        </mxCell>
        <mxCell id="trcw09YQFbVrs_72Otnj-503" value="" style="shape=tableRow;horizontal=0;startSize=0;swimlaneHead=0;swimlaneBody=0;top=0;left=0;bottom=0;right=0;collapsible=0;dropTarget=0;fillColor=none;points=[[0,0.5],[1,0.5]];portConstraint=eastwest;strokeColor=#028090;fontSize=16;rounded=1;labelBackgroundColor=none;fontColor=#E4FDE1;sketch=1;curveFitting=1;jiggle=2;" vertex="1" parent="trcw09YQFbVrs_72Otnj-496">
          <mxGeometry y="90" width="180" height="30" as="geometry" />
        </mxCell>
        <mxCell id="trcw09YQFbVrs_72Otnj-504" value="" style="shape=partialRectangle;html=1;whiteSpace=wrap;connectable=0;fillColor=none;top=0;left=0;bottom=0;right=0;overflow=hidden;strokeColor=#028090;fontSize=16;rounded=1;labelBackgroundColor=none;fontColor=#E4FDE1;sketch=1;curveFitting=1;jiggle=2;" vertex="1" parent="trcw09YQFbVrs_72Otnj-503">
          <mxGeometry width="40" height="30" as="geometry">
            <mxRectangle width="40" height="30" as="alternateBounds" />
          </mxGeometry>
        </mxCell>
        <mxCell id="trcw09YQFbVrs_72Otnj-505" value="generated" style="shape=partialRectangle;html=1;whiteSpace=wrap;connectable=0;fillColor=none;top=0;left=0;bottom=0;right=0;align=left;spacingLeft=6;overflow=hidden;strokeColor=#028090;fontSize=16;rounded=1;labelBackgroundColor=none;fontColor=#E4FDE1;sketch=1;curveFitting=1;jiggle=2;" vertex="1" parent="trcw09YQFbVrs_72Otnj-503">
          <mxGeometry x="40" width="140" height="30" as="geometry">
            <mxRectangle width="140" height="30" as="alternateBounds" />
          </mxGeometry>
        </mxCell>
        <mxCell id="trcw09YQFbVrs_72Otnj-506" value="" style="shape=tableRow;horizontal=0;startSize=0;swimlaneHead=0;swimlaneBody=0;top=0;left=0;bottom=0;right=0;collapsible=0;dropTarget=0;fillColor=none;points=[[0,0.5],[1,0.5]];portConstraint=eastwest;strokeColor=#028090;fontSize=16;rounded=1;labelBackgroundColor=none;fontColor=#E4FDE1;sketch=1;curveFitting=1;jiggle=2;" vertex="1" parent="trcw09YQFbVrs_72Otnj-496">
          <mxGeometry y="120" width="180" height="30" as="geometry" />
        </mxCell>
        <mxCell id="trcw09YQFbVrs_72Otnj-507" value="&lt;b&gt;FK&lt;/b&gt;" style="shape=partialRectangle;html=1;whiteSpace=wrap;connectable=0;fillColor=none;top=0;left=0;bottom=0;right=0;overflow=hidden;strokeColor=#028090;fontSize=16;rounded=1;labelBackgroundColor=none;fontColor=#E4FDE1;sketch=1;curveFitting=1;jiggle=2;" vertex="1" parent="trcw09YQFbVrs_72Otnj-506">
          <mxGeometry width="40" height="30" as="geometry">
            <mxRectangle width="40" height="30" as="alternateBounds" />
          </mxGeometry>
        </mxCell>
        <mxCell id="trcw09YQFbVrs_72Otnj-508" value="&lt;b&gt;id_list&lt;/b&gt;" style="shape=partialRectangle;html=1;whiteSpace=wrap;connectable=0;fillColor=none;top=0;left=0;bottom=0;right=0;align=left;spacingLeft=6;overflow=hidden;strokeColor=#028090;fontSize=16;rounded=1;labelBackgroundColor=none;fontColor=#E4FDE1;sketch=1;curveFitting=1;jiggle=2;" vertex="1" parent="trcw09YQFbVrs_72Otnj-506">
          <mxGeometry x="40" width="140" height="30" as="geometry">
            <mxRectangle width="140" height="30" as="alternateBounds" />
          </mxGeometry>
        </mxCell>
        <mxCell id="trcw09YQFbVrs_72Otnj-509" style="edgeStyle=orthogonalEdgeStyle;rounded=1;orthogonalLoop=1;jettySize=auto;html=1;exitX=0;exitY=0.5;exitDx=0;exitDy=0;entryX=0.98;entryY=0.505;entryDx=0;entryDy=0;startArrow=ERmany;startFill=0;endArrow=none;endFill=0;entryPerimeter=0;labelBackgroundColor=none;strokeColor=#028090;fontColor=default;sketch=1;curveFitting=1;jiggle=2;" edge="1" parent="1" source="trcw09YQFbVrs_72Otnj-537" target="trcw09YQFbVrs_72Otnj-487">
          <mxGeometry relative="1" as="geometry" />
        </mxCell>
        <mxCell id="trcw09YQFbVrs_72Otnj-510" style="edgeStyle=orthogonalEdgeStyle;rounded=1;orthogonalLoop=1;jettySize=auto;html=1;exitX=0.021;exitY=0.501;exitDx=0;exitDy=0;entryX=1;entryY=0.25;entryDx=0;entryDy=0;endArrow=none;endFill=0;exitPerimeter=0;labelBackgroundColor=none;strokeColor=#028090;fontColor=default;sketch=1;curveFitting=1;jiggle=2;" edge="1" parent="1" source="trcw09YQFbVrs_72Otnj-512" target="trcw09YQFbVrs_72Otnj-496">
          <mxGeometry relative="1" as="geometry">
            <mxPoint x="560.136" y="1249.9240000000002" as="sourcePoint" />
          </mxGeometry>
        </mxCell>
        <mxCell id="trcw09YQFbVrs_72Otnj-511" value="states" style="shape=table;startSize=30;container=1;collapsible=0;childLayout=tableLayout;fixedRows=1;rowLines=0;fontStyle=0;strokeColor=#028090;fontSize=16;rounded=1;labelBackgroundColor=none;fillColor=#F45B69;fontColor=#E4FDE1;sketch=1;curveFitting=1;jiggle=2;" vertex="1" parent="1">
          <mxGeometry x="680" y="1280" width="180" height="210" as="geometry" />
        </mxCell>
        <mxCell id="trcw09YQFbVrs_72Otnj-512" value="" style="shape=tableRow;horizontal=0;startSize=0;swimlaneHead=0;swimlaneBody=0;top=0;left=0;bottom=0;right=0;collapsible=0;dropTarget=0;fillColor=none;points=[[0,0.5],[1,0.5]];portConstraint=eastwest;strokeColor=#028090;fontSize=16;perimeterSpacing=4;rounded=1;labelBackgroundColor=none;fontColor=#E4FDE1;sketch=1;curveFitting=1;jiggle=2;" vertex="1" parent="trcw09YQFbVrs_72Otnj-511">
          <mxGeometry y="30" width="180" height="30" as="geometry" />
        </mxCell>
        <mxCell id="trcw09YQFbVrs_72Otnj-513" value="&lt;b&gt;FK&lt;/b&gt;" style="shape=partialRectangle;html=1;whiteSpace=wrap;connectable=0;fillColor=none;top=0;left=0;bottom=0;right=0;overflow=hidden;pointerEvents=1;strokeColor=#028090;fontSize=16;rounded=1;labelBackgroundColor=none;fontColor=#E4FDE1;sketch=1;curveFitting=1;jiggle=2;" vertex="1" parent="trcw09YQFbVrs_72Otnj-512">
          <mxGeometry width="40" height="30" as="geometry">
            <mxRectangle width="40" height="30" as="alternateBounds" />
          </mxGeometry>
        </mxCell>
        <mxCell id="trcw09YQFbVrs_72Otnj-514" value="&lt;b&gt;id&lt;/b&gt;" style="shape=partialRectangle;html=1;whiteSpace=wrap;connectable=0;fillColor=none;top=0;left=0;bottom=0;right=0;align=left;spacingLeft=6;overflow=hidden;strokeColor=#028090;fontSize=16;perimeterSpacing=4;rounded=1;labelBackgroundColor=none;fontColor=#E4FDE1;sketch=1;curveFitting=1;jiggle=2;" vertex="1" parent="trcw09YQFbVrs_72Otnj-512">
          <mxGeometry x="40" width="140" height="30" as="geometry">
            <mxRectangle width="140" height="30" as="alternateBounds" />
          </mxGeometry>
        </mxCell>
        <mxCell id="trcw09YQFbVrs_72Otnj-515" value="" style="shape=tableRow;horizontal=0;startSize=0;swimlaneHead=0;swimlaneBody=0;top=0;left=0;bottom=0;right=0;collapsible=0;dropTarget=0;fillColor=none;points=[[0,0.5],[1,0.5]];portConstraint=eastwest;strokeColor=#028090;fontSize=16;rounded=1;labelBackgroundColor=none;fontColor=#E4FDE1;sketch=1;curveFitting=1;jiggle=2;" vertex="1" parent="trcw09YQFbVrs_72Otnj-511">
          <mxGeometry y="60" width="180" height="30" as="geometry" />
        </mxCell>
        <mxCell id="trcw09YQFbVrs_72Otnj-516" value="" style="shape=partialRectangle;html=1;whiteSpace=wrap;connectable=0;fillColor=none;top=0;left=0;bottom=0;right=0;overflow=hidden;strokeColor=#028090;fontSize=16;rounded=1;labelBackgroundColor=none;fontColor=#E4FDE1;sketch=1;curveFitting=1;jiggle=2;" vertex="1" parent="trcw09YQFbVrs_72Otnj-515">
          <mxGeometry width="40" height="30" as="geometry">
            <mxRectangle width="40" height="30" as="alternateBounds" />
          </mxGeometry>
        </mxCell>
        <mxCell id="trcw09YQFbVrs_72Otnj-517" value="title" style="shape=partialRectangle;html=1;whiteSpace=wrap;connectable=0;fillColor=none;top=0;left=0;bottom=0;right=0;align=left;spacingLeft=6;overflow=hidden;strokeColor=#028090;fontSize=16;rounded=1;labelBackgroundColor=none;fontColor=#E4FDE1;sketch=1;curveFitting=1;jiggle=2;" vertex="1" parent="trcw09YQFbVrs_72Otnj-515">
          <mxGeometry x="40" width="140" height="30" as="geometry">
            <mxRectangle width="140" height="30" as="alternateBounds" />
          </mxGeometry>
        </mxCell>
        <mxCell id="trcw09YQFbVrs_72Otnj-518" value="" style="shape=tableRow;horizontal=0;startSize=0;swimlaneHead=0;swimlaneBody=0;top=0;left=0;bottom=0;right=0;collapsible=0;dropTarget=0;fillColor=none;points=[[0,0.5],[1,0.5]];portConstraint=eastwest;strokeColor=#028090;fontSize=16;rounded=1;labelBackgroundColor=none;fontColor=#E4FDE1;sketch=1;curveFitting=1;jiggle=2;" vertex="1" parent="trcw09YQFbVrs_72Otnj-511">
          <mxGeometry y="90" width="180" height="30" as="geometry" />
        </mxCell>
        <mxCell id="trcw09YQFbVrs_72Otnj-519" value="" style="shape=partialRectangle;html=1;whiteSpace=wrap;connectable=0;fillColor=none;top=0;left=0;bottom=0;right=0;overflow=hidden;strokeColor=#028090;fontSize=16;rounded=1;labelBackgroundColor=none;fontColor=#E4FDE1;sketch=1;curveFitting=1;jiggle=2;" vertex="1" parent="trcw09YQFbVrs_72Otnj-518">
          <mxGeometry width="40" height="30" as="geometry">
            <mxRectangle width="40" height="30" as="alternateBounds" />
          </mxGeometry>
        </mxCell>
        <mxCell id="trcw09YQFbVrs_72Otnj-520" value="date_delete" style="shape=partialRectangle;html=1;whiteSpace=wrap;connectable=0;fillColor=none;top=0;left=0;bottom=0;right=0;align=left;spacingLeft=6;overflow=hidden;strokeColor=#028090;fontSize=16;rounded=1;labelBackgroundColor=none;fontColor=#E4FDE1;sketch=1;curveFitting=1;jiggle=2;" vertex="1" parent="trcw09YQFbVrs_72Otnj-518">
          <mxGeometry x="40" width="140" height="30" as="geometry">
            <mxRectangle width="140" height="30" as="alternateBounds" />
          </mxGeometry>
        </mxCell>
        <mxCell id="trcw09YQFbVrs_72Otnj-521" value="" style="shape=tableRow;horizontal=0;startSize=0;swimlaneHead=0;swimlaneBody=0;top=0;left=0;bottom=0;right=0;collapsible=0;dropTarget=0;fillColor=none;points=[[0,0.5],[1,0.5]];portConstraint=eastwest;strokeColor=#028090;fontSize=16;rounded=1;labelBackgroundColor=none;fontColor=#E4FDE1;sketch=1;curveFitting=1;jiggle=2;" vertex="1" parent="trcw09YQFbVrs_72Otnj-511">
          <mxGeometry y="120" width="180" height="30" as="geometry" />
        </mxCell>
        <mxCell id="trcw09YQFbVrs_72Otnj-522" value="" style="shape=partialRectangle;html=1;whiteSpace=wrap;connectable=0;fillColor=none;top=0;left=0;bottom=0;right=0;overflow=hidden;strokeColor=#028090;fontSize=16;rounded=1;labelBackgroundColor=none;fontColor=#E4FDE1;sketch=1;curveFitting=1;jiggle=2;" vertex="1" parent="trcw09YQFbVrs_72Otnj-521">
          <mxGeometry width="40" height="30" as="geometry">
            <mxRectangle width="40" height="30" as="alternateBounds" />
          </mxGeometry>
        </mxCell>
        <mxCell id="trcw09YQFbVrs_72Otnj-523" value="counter" style="shape=partialRectangle;html=1;whiteSpace=wrap;connectable=0;fillColor=none;top=0;left=0;bottom=0;right=0;align=left;spacingLeft=6;overflow=hidden;strokeColor=#028090;fontSize=16;rounded=1;labelBackgroundColor=none;fontColor=#E4FDE1;sketch=1;curveFitting=1;jiggle=2;" vertex="1" parent="trcw09YQFbVrs_72Otnj-521">
          <mxGeometry x="40" width="140" height="30" as="geometry">
            <mxRectangle width="140" height="30" as="alternateBounds" />
          </mxGeometry>
        </mxCell>
        <mxCell id="trcw09YQFbVrs_72Otnj-524" value="" style="shape=tableRow;horizontal=0;startSize=0;swimlaneHead=0;swimlaneBody=0;top=0;left=0;bottom=0;right=0;collapsible=0;dropTarget=0;fillColor=none;points=[[0,0.5],[1,0.5]];portConstraint=eastwest;strokeColor=#028090;fontSize=16;rounded=1;labelBackgroundColor=none;fontColor=#E4FDE1;sketch=1;curveFitting=1;jiggle=2;" vertex="1" parent="trcw09YQFbVrs_72Otnj-511">
          <mxGeometry y="150" width="180" height="30" as="geometry" />
        </mxCell>
        <mxCell id="trcw09YQFbVrs_72Otnj-525" value="" style="shape=partialRectangle;html=1;whiteSpace=wrap;connectable=0;fillColor=none;top=0;left=0;bottom=0;right=0;overflow=hidden;strokeColor=#028090;fontSize=16;rounded=1;labelBackgroundColor=none;fontColor=#E4FDE1;sketch=1;curveFitting=1;jiggle=2;" vertex="1" parent="trcw09YQFbVrs_72Otnj-524">
          <mxGeometry width="40" height="30" as="geometry">
            <mxRectangle width="40" height="30" as="alternateBounds" />
          </mxGeometry>
        </mxCell>
        <mxCell id="trcw09YQFbVrs_72Otnj-526" value="status_original" style="shape=partialRectangle;html=1;whiteSpace=wrap;connectable=0;fillColor=none;top=0;left=0;bottom=0;right=0;align=left;spacingLeft=6;overflow=hidden;strokeColor=#028090;fontSize=16;rounded=1;labelBackgroundColor=none;fontColor=#E4FDE1;sketch=1;curveFitting=1;jiggle=2;" vertex="1" parent="trcw09YQFbVrs_72Otnj-524">
          <mxGeometry x="40" width="140" height="30" as="geometry">
            <mxRectangle width="140" height="30" as="alternateBounds" />
          </mxGeometry>
        </mxCell>
        <mxCell id="trcw09YQFbVrs_72Otnj-527" value="" style="shape=tableRow;horizontal=0;startSize=0;swimlaneHead=0;swimlaneBody=0;top=0;left=0;bottom=0;right=0;collapsible=0;dropTarget=0;fillColor=none;points=[[0,0.5],[1,0.5]];portConstraint=eastwest;strokeColor=#028090;fontSize=16;rounded=1;labelBackgroundColor=none;fontColor=#E4FDE1;sketch=1;curveFitting=1;jiggle=2;" vertex="1" parent="trcw09YQFbVrs_72Otnj-511">
          <mxGeometry y="180" width="180" height="30" as="geometry" />
        </mxCell>
        <mxCell id="trcw09YQFbVrs_72Otnj-528" value="" style="shape=partialRectangle;html=1;whiteSpace=wrap;connectable=0;fillColor=none;top=0;left=0;bottom=0;right=0;overflow=hidden;strokeColor=#028090;fontSize=16;rounded=1;labelBackgroundColor=none;fontColor=#E4FDE1;sketch=1;curveFitting=1;jiggle=2;" vertex="1" parent="trcw09YQFbVrs_72Otnj-527">
          <mxGeometry width="40" height="30" as="geometry">
            <mxRectangle width="40" height="30" as="alternateBounds" />
          </mxGeometry>
        </mxCell>
        <mxCell id="trcw09YQFbVrs_72Otnj-529" value="status_generated" style="shape=partialRectangle;html=1;whiteSpace=wrap;connectable=0;fillColor=none;top=0;left=0;bottom=0;right=0;align=left;spacingLeft=6;overflow=hidden;strokeColor=#028090;fontSize=16;rounded=1;labelBackgroundColor=none;fontColor=#E4FDE1;sketch=1;curveFitting=1;jiggle=2;" vertex="1" parent="trcw09YQFbVrs_72Otnj-527">
          <mxGeometry x="40" width="140" height="30" as="geometry">
            <mxRectangle width="140" height="30" as="alternateBounds" />
          </mxGeometry>
        </mxCell>
        <mxCell id="trcw09YQFbVrs_72Otnj-530" value="lists" style="shape=table;startSize=30;container=1;collapsible=0;childLayout=tableLayout;fixedRows=1;rowLines=0;fontStyle=0;strokeColor=#028090;fontSize=16;rounded=1;labelBackgroundColor=none;fillColor=#F45B69;fontColor=#E4FDE1;sketch=1;curveFitting=1;jiggle=2;" vertex="1" parent="1">
          <mxGeometry x="230" y="1210" width="180" height="120" as="geometry" />
        </mxCell>
        <mxCell id="trcw09YQFbVrs_72Otnj-531" value="" style="shape=tableRow;horizontal=0;startSize=0;swimlaneHead=0;swimlaneBody=0;top=0;left=0;bottom=0;right=0;collapsible=0;dropTarget=0;fillColor=none;points=[[0,0.5],[1,0.5]];portConstraint=eastwest;strokeColor=#028090;fontSize=16;perimeterSpacing=4;rounded=1;labelBackgroundColor=none;fontColor=#E4FDE1;sketch=1;curveFitting=1;jiggle=2;" vertex="1" parent="trcw09YQFbVrs_72Otnj-530">
          <mxGeometry y="30" width="180" height="30" as="geometry" />
        </mxCell>
        <mxCell id="trcw09YQFbVrs_72Otnj-532" value="&lt;b&gt;PK&lt;/b&gt;" style="shape=partialRectangle;html=1;whiteSpace=wrap;connectable=0;fillColor=none;top=0;left=0;bottom=0;right=0;overflow=hidden;pointerEvents=1;strokeColor=#028090;fontSize=16;rounded=1;labelBackgroundColor=none;fontColor=#E4FDE1;sketch=1;curveFitting=1;jiggle=2;" vertex="1" parent="trcw09YQFbVrs_72Otnj-531">
          <mxGeometry width="40" height="30" as="geometry">
            <mxRectangle width="40" height="30" as="alternateBounds" />
          </mxGeometry>
        </mxCell>
        <mxCell id="trcw09YQFbVrs_72Otnj-533" value="&lt;b&gt;id&lt;/b&gt;" style="shape=partialRectangle;html=1;whiteSpace=wrap;connectable=0;fillColor=none;top=0;left=0;bottom=0;right=0;align=left;spacingLeft=6;overflow=hidden;strokeColor=#028090;fontSize=16;perimeterSpacing=4;rounded=1;labelBackgroundColor=none;fontColor=#E4FDE1;sketch=1;curveFitting=1;jiggle=2;" vertex="1" parent="trcw09YQFbVrs_72Otnj-531">
          <mxGeometry x="40" width="140" height="30" as="geometry">
            <mxRectangle width="140" height="30" as="alternateBounds" />
          </mxGeometry>
        </mxCell>
        <mxCell id="trcw09YQFbVrs_72Otnj-534" value="" style="shape=tableRow;horizontal=0;startSize=0;swimlaneHead=0;swimlaneBody=0;top=0;left=0;bottom=0;right=0;collapsible=0;dropTarget=0;fillColor=none;points=[[0,0.5],[1,0.5]];portConstraint=eastwest;strokeColor=#028090;fontSize=16;rounded=1;labelBackgroundColor=none;fontColor=#E4FDE1;sketch=1;curveFitting=1;jiggle=2;" vertex="1" parent="trcw09YQFbVrs_72Otnj-530">
          <mxGeometry y="60" width="180" height="30" as="geometry" />
        </mxCell>
        <mxCell id="trcw09YQFbVrs_72Otnj-535" value="" style="shape=partialRectangle;html=1;whiteSpace=wrap;connectable=0;fillColor=none;top=0;left=0;bottom=0;right=0;overflow=hidden;strokeColor=#028090;fontSize=16;rounded=1;labelBackgroundColor=none;fontColor=#E4FDE1;sketch=1;curveFitting=1;jiggle=2;" vertex="1" parent="trcw09YQFbVrs_72Otnj-534">
          <mxGeometry width="40" height="30" as="geometry">
            <mxRectangle width="40" height="30" as="alternateBounds" />
          </mxGeometry>
        </mxCell>
        <mxCell id="trcw09YQFbVrs_72Otnj-536" value="title" style="shape=partialRectangle;html=1;whiteSpace=wrap;connectable=0;fillColor=none;top=0;left=0;bottom=0;right=0;align=left;spacingLeft=6;overflow=hidden;strokeColor=#028090;fontSize=16;rounded=1;labelBackgroundColor=none;fontColor=#E4FDE1;sketch=1;curveFitting=1;jiggle=2;" vertex="1" parent="trcw09YQFbVrs_72Otnj-534">
          <mxGeometry x="40" width="140" height="30" as="geometry">
            <mxRectangle width="140" height="30" as="alternateBounds" />
          </mxGeometry>
        </mxCell>
        <mxCell id="trcw09YQFbVrs_72Otnj-537" value="" style="shape=tableRow;horizontal=0;startSize=0;swimlaneHead=0;swimlaneBody=0;top=0;left=0;bottom=0;right=0;collapsible=0;dropTarget=0;fillColor=none;points=[[0,0.5],[1,0.5]];portConstraint=eastwest;strokeColor=#028090;fontSize=16;rounded=1;labelBackgroundColor=none;fontColor=#E4FDE1;sketch=1;curveFitting=1;jiggle=2;" vertex="1" parent="trcw09YQFbVrs_72Otnj-530">
          <mxGeometry y="90" width="180" height="30" as="geometry" />
        </mxCell>
        <mxCell id="trcw09YQFbVrs_72Otnj-538" value="&lt;b&gt;FK&lt;/b&gt;" style="shape=partialRectangle;html=1;whiteSpace=wrap;connectable=0;fillColor=none;top=0;left=0;bottom=0;right=0;overflow=hidden;strokeColor=#028090;fontSize=16;rounded=1;labelBackgroundColor=none;fontColor=#E4FDE1;sketch=1;curveFitting=1;jiggle=2;" vertex="1" parent="trcw09YQFbVrs_72Otnj-537">
          <mxGeometry width="40" height="30" as="geometry">
            <mxRectangle width="40" height="30" as="alternateBounds" />
          </mxGeometry>
        </mxCell>
        <mxCell id="trcw09YQFbVrs_72Otnj-539" value="&lt;b&gt;id_user&lt;/b&gt;" style="shape=partialRectangle;html=1;whiteSpace=wrap;connectable=0;fillColor=none;top=0;left=0;bottom=0;right=0;align=left;spacingLeft=6;overflow=hidden;strokeColor=#028090;fontSize=16;rounded=1;labelBackgroundColor=none;fontColor=#E4FDE1;sketch=1;curveFitting=1;jiggle=2;" vertex="1" parent="trcw09YQFbVrs_72Otnj-537">
          <mxGeometry x="40" width="140" height="30" as="geometry">
            <mxRectangle width="140" height="30" as="alternateBounds" />
          </mxGeometry>
        </mxCell>
        <mxCell id="trcw09YQFbVrs_72Otnj-540" style="edgeStyle=orthogonalEdgeStyle;rounded=1;orthogonalLoop=1;jettySize=auto;html=1;exitX=0;exitY=0.5;exitDx=0;exitDy=0;entryX=0.979;entryY=0.488;entryDx=0;entryDy=0;startArrow=ERmany;startFill=0;endArrow=none;endFill=0;labelBackgroundColor=none;strokeColor=#028090;fontColor=default;entryPerimeter=0;sketch=1;curveFitting=1;jiggle=2;" edge="1" parent="1" source="trcw09YQFbVrs_72Otnj-506" target="trcw09YQFbVrs_72Otnj-531">
          <mxGeometry relative="1" as="geometry">
            <mxPoint x="460" y="1329.51" as="sourcePoint" />
            <mxPoint x="420" y="1269.51" as="targetPoint" />
          </mxGeometry>
        </mxCell>
        <mxCell id="trcw09YQFbVrs_72Otnj-541" value="heap_links" style="shape=table;startSize=30;container=1;collapsible=0;childLayout=tableLayout;fixedRows=1;rowLines=0;fontStyle=0;strokeColor=#028090;fontSize=16;rounded=1;labelBackgroundColor=none;fillColor=#F45B69;fontColor=#E4FDE1;sketch=1;curveFitting=1;jiggle=2;" vertex="1" parent="1">
          <mxGeometry x="470" y="1390" width="180" height="150" as="geometry" />
        </mxCell>
        <mxCell id="trcw09YQFbVrs_72Otnj-542" value="" style="shape=tableRow;horizontal=0;startSize=0;swimlaneHead=0;swimlaneBody=0;top=0;left=0;bottom=0;right=0;collapsible=0;dropTarget=0;fillColor=none;points=[[0,0.5],[1,0.5]];portConstraint=eastwest;strokeColor=#028090;fontSize=16;perimeterSpacing=4;rounded=1;labelBackgroundColor=none;fontColor=#E4FDE1;sketch=1;curveFitting=1;jiggle=2;" vertex="1" parent="trcw09YQFbVrs_72Otnj-541">
          <mxGeometry y="30" width="180" height="30" as="geometry" />
        </mxCell>
        <mxCell id="trcw09YQFbVrs_72Otnj-543" value="&lt;b&gt;PK&lt;/b&gt;" style="shape=partialRectangle;html=1;whiteSpace=wrap;connectable=0;fillColor=none;top=0;left=0;bottom=0;right=0;overflow=hidden;pointerEvents=1;strokeColor=#028090;fontSize=16;rounded=1;labelBackgroundColor=none;fontColor=#E4FDE1;sketch=1;curveFitting=1;jiggle=2;" vertex="1" parent="trcw09YQFbVrs_72Otnj-542">
          <mxGeometry width="40" height="30" as="geometry">
            <mxRectangle width="40" height="30" as="alternateBounds" />
          </mxGeometry>
        </mxCell>
        <mxCell id="trcw09YQFbVrs_72Otnj-544" value="&lt;b&gt;id&lt;/b&gt;" style="shape=partialRectangle;html=1;whiteSpace=wrap;connectable=0;fillColor=none;top=0;left=0;bottom=0;right=0;align=left;spacingLeft=6;overflow=hidden;strokeColor=#028090;fontSize=16;perimeterSpacing=4;rounded=1;labelBackgroundColor=none;fontColor=#E4FDE1;sketch=1;curveFitting=1;jiggle=2;" vertex="1" parent="trcw09YQFbVrs_72Otnj-542">
          <mxGeometry x="40" width="140" height="30" as="geometry">
            <mxRectangle width="140" height="30" as="alternateBounds" />
          </mxGeometry>
        </mxCell>
        <mxCell id="trcw09YQFbVrs_72Otnj-545" value="" style="shape=tableRow;horizontal=0;startSize=0;swimlaneHead=0;swimlaneBody=0;top=0;left=0;bottom=0;right=0;collapsible=0;dropTarget=0;fillColor=none;points=[[0,0.5],[1,0.5]];portConstraint=eastwest;strokeColor=#028090;fontSize=16;rounded=1;labelBackgroundColor=none;fontColor=#E4FDE1;sketch=1;curveFitting=1;jiggle=2;" vertex="1" parent="trcw09YQFbVrs_72Otnj-541">
          <mxGeometry y="60" width="180" height="30" as="geometry" />
        </mxCell>
        <mxCell id="trcw09YQFbVrs_72Otnj-546" value="" style="shape=partialRectangle;html=1;whiteSpace=wrap;connectable=0;fillColor=none;top=0;left=0;bottom=0;right=0;overflow=hidden;strokeColor=#028090;fontSize=16;rounded=1;labelBackgroundColor=none;fontColor=#E4FDE1;sketch=1;curveFitting=1;jiggle=2;" vertex="1" parent="trcw09YQFbVrs_72Otnj-545">
          <mxGeometry width="40" height="30" as="geometry">
            <mxRectangle width="40" height="30" as="alternateBounds" />
          </mxGeometry>
        </mxCell>
        <mxCell id="trcw09YQFbVrs_72Otnj-547" value="original" style="shape=partialRectangle;html=1;whiteSpace=wrap;connectable=0;fillColor=none;top=0;left=0;bottom=0;right=0;align=left;spacingLeft=6;overflow=hidden;strokeColor=#028090;fontSize=16;rounded=1;labelBackgroundColor=none;fontColor=#E4FDE1;sketch=1;curveFitting=1;jiggle=2;" vertex="1" parent="trcw09YQFbVrs_72Otnj-545">
          <mxGeometry x="40" width="140" height="30" as="geometry">
            <mxRectangle width="140" height="30" as="alternateBounds" />
          </mxGeometry>
        </mxCell>
        <mxCell id="trcw09YQFbVrs_72Otnj-548" value="" style="shape=tableRow;horizontal=0;startSize=0;swimlaneHead=0;swimlaneBody=0;top=0;left=0;bottom=0;right=0;collapsible=0;dropTarget=0;fillColor=none;points=[[0,0.5],[1,0.5]];portConstraint=eastwest;strokeColor=#028090;fontSize=16;rounded=1;labelBackgroundColor=none;fontColor=#E4FDE1;sketch=1;curveFitting=1;jiggle=2;" vertex="1" parent="trcw09YQFbVrs_72Otnj-541">
          <mxGeometry y="90" width="180" height="30" as="geometry" />
        </mxCell>
        <mxCell id="trcw09YQFbVrs_72Otnj-549" value="" style="shape=partialRectangle;html=1;whiteSpace=wrap;connectable=0;fillColor=none;top=0;left=0;bottom=0;right=0;overflow=hidden;strokeColor=#028090;fontSize=16;rounded=1;labelBackgroundColor=none;fontColor=#E4FDE1;sketch=1;curveFitting=1;jiggle=2;" vertex="1" parent="trcw09YQFbVrs_72Otnj-548">
          <mxGeometry width="40" height="30" as="geometry">
            <mxRectangle width="40" height="30" as="alternateBounds" />
          </mxGeometry>
        </mxCell>
        <mxCell id="trcw09YQFbVrs_72Otnj-550" value="generated" style="shape=partialRectangle;html=1;whiteSpace=wrap;connectable=0;fillColor=none;top=0;left=0;bottom=0;right=0;align=left;spacingLeft=6;overflow=hidden;strokeColor=#028090;fontSize=16;rounded=1;labelBackgroundColor=none;fontColor=#E4FDE1;sketch=1;curveFitting=1;jiggle=2;" vertex="1" parent="trcw09YQFbVrs_72Otnj-548">
          <mxGeometry x="40" width="140" height="30" as="geometry">
            <mxRectangle width="140" height="30" as="alternateBounds" />
          </mxGeometry>
        </mxCell>
        <mxCell id="trcw09YQFbVrs_72Otnj-551" value="" style="shape=tableRow;horizontal=0;startSize=0;swimlaneHead=0;swimlaneBody=0;top=0;left=0;bottom=0;right=0;collapsible=0;dropTarget=0;fillColor=none;points=[[0,0.5],[1,0.5]];portConstraint=eastwest;strokeColor=#028090;fontSize=16;rounded=1;labelBackgroundColor=none;fontColor=#E4FDE1;sketch=1;curveFitting=1;jiggle=2;" vertex="1" parent="trcw09YQFbVrs_72Otnj-541">
          <mxGeometry y="120" width="180" height="30" as="geometry" />
        </mxCell>
        <mxCell id="trcw09YQFbVrs_72Otnj-552" value="" style="shape=partialRectangle;html=1;whiteSpace=wrap;connectable=0;fillColor=none;top=0;left=0;bottom=0;right=0;overflow=hidden;strokeColor=#028090;fontSize=16;rounded=1;labelBackgroundColor=none;fontColor=#E4FDE1;sketch=1;curveFitting=1;jiggle=2;" vertex="1" parent="trcw09YQFbVrs_72Otnj-551">
          <mxGeometry width="40" height="30" as="geometry">
            <mxRectangle width="40" height="30" as="alternateBounds" />
          </mxGeometry>
        </mxCell>
        <mxCell id="trcw09YQFbVrs_72Otnj-553" value="date_delete" style="shape=partialRectangle;html=1;whiteSpace=wrap;connectable=0;fillColor=none;top=0;left=0;bottom=0;right=0;align=left;spacingLeft=6;overflow=hidden;strokeColor=#028090;fontSize=16;rounded=1;labelBackgroundColor=none;fontColor=#E4FDE1;sketch=1;curveFitting=1;jiggle=2;" vertex="1" parent="trcw09YQFbVrs_72Otnj-551">
          <mxGeometry x="40" width="140" height="30" as="geometry">
            <mxRectangle width="140" height="30" as="alternateBounds" />
          </mxGeometry>
        </mxCell>
        <mxCell id="trcw09YQFbVrs_72Otnj-610" value="subscriptions" style="shape=table;startSize=30;container=1;collapsible=0;childLayout=tableLayout;fixedRows=1;rowLines=0;fontStyle=0;strokeColor=#028090;fontSize=16;rounded=1;labelBackgroundColor=none;fillColor=#F45B69;fontColor=#E4FDE1;sketch=1;curveFitting=1;jiggle=2;" vertex="1" parent="1">
          <mxGeometry x="260" y="1390" width="180" height="90" as="geometry" />
        </mxCell>
        <mxCell id="trcw09YQFbVrs_72Otnj-611" value="" style="shape=tableRow;horizontal=0;startSize=0;swimlaneHead=0;swimlaneBody=0;top=0;left=0;bottom=0;right=0;collapsible=0;dropTarget=0;fillColor=none;points=[[0,0.5],[1,0.5]];portConstraint=eastwest;strokeColor=#028090;fontSize=16;perimeterSpacing=4;rounded=0;labelBackgroundColor=none;fontColor=#E4FDE1;swimlaneLine=0;fontStyle=1;sketch=1;curveFitting=1;jiggle=2;" vertex="1" parent="trcw09YQFbVrs_72Otnj-610">
          <mxGeometry y="30" width="180" height="30" as="geometry" />
        </mxCell>
        <mxCell id="trcw09YQFbVrs_72Otnj-612" value="&lt;b&gt;PK&lt;/b&gt;" style="shape=partialRectangle;html=1;whiteSpace=wrap;connectable=0;fillColor=none;top=0;left=0;bottom=0;right=0;overflow=hidden;pointerEvents=1;strokeColor=#028090;fontSize=16;rounded=1;labelBackgroundColor=none;fontColor=#E4FDE1;sketch=1;curveFitting=1;jiggle=2;" vertex="1" parent="trcw09YQFbVrs_72Otnj-611">
          <mxGeometry width="40" height="30" as="geometry">
            <mxRectangle width="40" height="30" as="alternateBounds" />
          </mxGeometry>
        </mxCell>
        <mxCell id="trcw09YQFbVrs_72Otnj-613" value="&lt;b&gt;id&lt;/b&gt;" style="shape=partialRectangle;html=1;whiteSpace=wrap;connectable=0;fillColor=none;top=0;left=0;bottom=0;right=0;align=left;spacingLeft=6;overflow=hidden;strokeColor=#028090;fontSize=16;perimeterSpacing=4;rounded=1;labelBackgroundColor=none;fontColor=#E4FDE1;sketch=1;curveFitting=1;jiggle=2;" vertex="1" parent="trcw09YQFbVrs_72Otnj-611">
          <mxGeometry x="40" width="140" height="30" as="geometry">
            <mxRectangle width="140" height="30" as="alternateBounds" />
          </mxGeometry>
        </mxCell>
        <mxCell id="trcw09YQFbVrs_72Otnj-617" value="" style="shape=tableRow;horizontal=0;startSize=0;swimlaneHead=0;swimlaneBody=0;top=0;left=0;bottom=0;right=0;collapsible=0;dropTarget=0;fillColor=none;points=[[0,0.5],[1,0.5]];portConstraint=eastwest;strokeColor=#028090;fontSize=16;rounded=1;labelBackgroundColor=none;fontColor=#E4FDE1;sketch=1;curveFitting=1;jiggle=2;" vertex="1" parent="trcw09YQFbVrs_72Otnj-610">
          <mxGeometry y="60" width="180" height="30" as="geometry" />
        </mxCell>
        <mxCell id="trcw09YQFbVrs_72Otnj-618" value="" style="shape=partialRectangle;html=1;whiteSpace=wrap;connectable=0;fillColor=none;top=0;left=0;bottom=0;right=0;overflow=hidden;strokeColor=#028090;fontSize=16;rounded=1;labelBackgroundColor=none;fontColor=#E4FDE1;sketch=1;curveFitting=1;jiggle=2;" vertex="1" parent="trcw09YQFbVrs_72Otnj-617">
          <mxGeometry width="40" height="30" as="geometry">
            <mxRectangle width="40" height="30" as="alternateBounds" />
          </mxGeometry>
        </mxCell>
        <mxCell id="trcw09YQFbVrs_72Otnj-619" value="title" style="shape=partialRectangle;html=1;whiteSpace=wrap;connectable=0;fillColor=none;top=0;left=0;bottom=0;right=0;align=left;spacingLeft=6;overflow=hidden;strokeColor=#028090;fontSize=16;rounded=1;labelBackgroundColor=none;fontColor=#E4FDE1;sketch=1;curveFitting=1;jiggle=2;" vertex="1" parent="trcw09YQFbVrs_72Otnj-617">
          <mxGeometry x="40" width="140" height="30" as="geometry">
            <mxRectangle width="140" height="30" as="alternateBounds" />
          </mxGeometry>
        </mxCell>
        <mxCell id="trcw09YQFbVrs_72Otnj-620" value="states_subscription" style="shape=table;startSize=30;container=1;collapsible=0;childLayout=tableLayout;fixedRows=1;rowLines=0;fontStyle=0;strokeColor=#028090;fontSize=16;rounded=1;labelBackgroundColor=none;fillColor=#F45B69;fontColor=#E4FDE1;sketch=1;curveFitting=1;jiggle=2;" vertex="1" parent="1">
          <mxGeometry x="40" y="1420" width="180" height="120" as="geometry" />
        </mxCell>
        <mxCell id="trcw09YQFbVrs_72Otnj-621" value="" style="shape=tableRow;horizontal=0;startSize=0;swimlaneHead=0;swimlaneBody=0;top=0;left=0;bottom=0;right=0;collapsible=0;dropTarget=0;fillColor=none;points=[[0,0.5],[1,0.5]];portConstraint=eastwest;strokeColor=#028090;fontSize=16;perimeterSpacing=4;rounded=1;labelBackgroundColor=none;fontColor=#E4FDE1;sketch=1;curveFitting=1;jiggle=2;" vertex="1" parent="trcw09YQFbVrs_72Otnj-620">
          <mxGeometry y="30" width="180" height="30" as="geometry" />
        </mxCell>
        <mxCell id="trcw09YQFbVrs_72Otnj-622" value="&lt;b&gt;PK&lt;/b&gt;" style="shape=partialRectangle;html=1;whiteSpace=wrap;connectable=0;fillColor=none;top=0;left=0;bottom=0;right=0;overflow=hidden;pointerEvents=1;strokeColor=#028090;fontSize=16;rounded=1;labelBackgroundColor=none;fontColor=#E4FDE1;sketch=1;curveFitting=1;jiggle=2;" vertex="1" parent="trcw09YQFbVrs_72Otnj-621">
          <mxGeometry width="40" height="30" as="geometry">
            <mxRectangle width="40" height="30" as="alternateBounds" />
          </mxGeometry>
        </mxCell>
        <mxCell id="trcw09YQFbVrs_72Otnj-623" value="&lt;b&gt;id&lt;/b&gt;" style="shape=partialRectangle;html=1;whiteSpace=wrap;connectable=0;fillColor=none;top=0;left=0;bottom=0;right=0;align=left;spacingLeft=6;overflow=hidden;strokeColor=#028090;fontSize=16;perimeterSpacing=4;rounded=1;labelBackgroundColor=none;fontColor=#E4FDE1;sketch=1;curveFitting=1;jiggle=2;" vertex="1" parent="trcw09YQFbVrs_72Otnj-621">
          <mxGeometry x="40" width="140" height="30" as="geometry">
            <mxRectangle width="140" height="30" as="alternateBounds" />
          </mxGeometry>
        </mxCell>
        <mxCell id="trcw09YQFbVrs_72Otnj-624" value="" style="shape=tableRow;horizontal=0;startSize=0;swimlaneHead=0;swimlaneBody=0;top=0;left=0;bottom=0;right=0;collapsible=0;dropTarget=0;fillColor=none;points=[[0,0.5],[1,0.5]];portConstraint=eastwest;strokeColor=#028090;fontSize=16;rounded=1;labelBackgroundColor=none;fontColor=#E4FDE1;sketch=1;curveFitting=1;jiggle=2;" vertex="1" parent="trcw09YQFbVrs_72Otnj-620">
          <mxGeometry y="60" width="180" height="30" as="geometry" />
        </mxCell>
        <mxCell id="trcw09YQFbVrs_72Otnj-625" value="" style="shape=partialRectangle;html=1;whiteSpace=wrap;connectable=0;fillColor=none;top=0;left=0;bottom=0;right=0;overflow=hidden;strokeColor=#028090;fontSize=16;rounded=1;labelBackgroundColor=none;fontColor=#E4FDE1;sketch=1;curveFitting=1;jiggle=2;" vertex="1" parent="trcw09YQFbVrs_72Otnj-624">
          <mxGeometry width="40" height="30" as="geometry">
            <mxRectangle width="40" height="30" as="alternateBounds" />
          </mxGeometry>
        </mxCell>
        <mxCell id="trcw09YQFbVrs_72Otnj-626" value="date" style="shape=partialRectangle;html=1;whiteSpace=wrap;connectable=0;fillColor=none;top=0;left=0;bottom=0;right=0;align=left;spacingLeft=6;overflow=hidden;strokeColor=#028090;fontSize=16;rounded=1;labelBackgroundColor=none;fontColor=#E4FDE1;sketch=1;curveFitting=1;jiggle=2;" vertex="1" parent="trcw09YQFbVrs_72Otnj-624">
          <mxGeometry x="40" width="140" height="30" as="geometry">
            <mxRectangle width="140" height="30" as="alternateBounds" />
          </mxGeometry>
        </mxCell>
        <mxCell id="trcw09YQFbVrs_72Otnj-627" value="" style="shape=tableRow;horizontal=0;startSize=0;swimlaneHead=0;swimlaneBody=0;top=0;left=0;bottom=0;right=0;collapsible=0;dropTarget=0;fillColor=none;points=[[0,0.5],[1,0.5]];portConstraint=eastwest;strokeColor=#028090;fontSize=16;rounded=1;labelBackgroundColor=none;fontColor=#E4FDE1;sketch=1;curveFitting=1;jiggle=2;" vertex="1" parent="trcw09YQFbVrs_72Otnj-620">
          <mxGeometry y="90" width="180" height="30" as="geometry" />
        </mxCell>
        <mxCell id="trcw09YQFbVrs_72Otnj-628" value="&lt;b&gt;FK&lt;/b&gt;" style="shape=partialRectangle;html=1;whiteSpace=wrap;connectable=0;fillColor=none;top=0;left=0;bottom=0;right=0;overflow=hidden;strokeColor=#028090;fontSize=16;rounded=1;labelBackgroundColor=none;fontColor=#E4FDE1;sketch=1;curveFitting=1;jiggle=2;" vertex="1" parent="trcw09YQFbVrs_72Otnj-627">
          <mxGeometry width="40" height="30" as="geometry">
            <mxRectangle width="40" height="30" as="alternateBounds" />
          </mxGeometry>
        </mxCell>
        <mxCell id="trcw09YQFbVrs_72Otnj-629" value="&lt;b&gt;id_subscription&lt;/b&gt;" style="shape=partialRectangle;html=1;whiteSpace=wrap;connectable=0;fillColor=none;top=0;left=0;bottom=0;right=0;align=left;spacingLeft=6;overflow=hidden;strokeColor=#028090;fontSize=16;rounded=1;labelBackgroundColor=none;fontColor=#E4FDE1;sketch=1;curveFitting=1;jiggle=2;" vertex="1" parent="trcw09YQFbVrs_72Otnj-627">
          <mxGeometry x="40" width="140" height="30" as="geometry">
            <mxRectangle width="140" height="30" as="alternateBounds" />
          </mxGeometry>
        </mxCell>
        <mxCell id="trcw09YQFbVrs_72Otnj-633" style="edgeStyle=orthogonalEdgeStyle;rounded=1;orthogonalLoop=1;jettySize=auto;html=1;exitX=1;exitY=0.5;exitDx=0;exitDy=0;entryX=0.022;entryY=0.507;entryDx=0;entryDy=0;strokeColor=#028090;endArrow=none;endFill=0;entryPerimeter=0;sketch=1;curveFitting=1;jiggle=2;labelBackgroundColor=none;fontColor=default;" edge="1" parent="1" source="trcw09YQFbVrs_72Otnj-630" target="trcw09YQFbVrs_72Otnj-621">
          <mxGeometry relative="1" as="geometry" />
        </mxCell>
        <mxCell id="trcw09YQFbVrs_72Otnj-634" style="edgeStyle=orthogonalEdgeStyle;rounded=1;orthogonalLoop=1;jettySize=auto;html=1;exitX=0.016;exitY=0.493;exitDx=0;exitDy=0;entryX=1;entryY=0.5;entryDx=0;entryDy=0;strokeColor=#028090;endArrow=ERmany;endFill=0;exitPerimeter=0;sketch=1;curveFitting=1;jiggle=2;labelBackgroundColor=none;fontColor=default;" edge="1" parent="1" source="trcw09YQFbVrs_72Otnj-611" target="trcw09YQFbVrs_72Otnj-627">
          <mxGeometry relative="1" as="geometry" />
        </mxCell>
      </root>
    </mxGraphModel>
  </diagram>
</mxfile>
